<svg xmlns="http://www.w3.org/2000/svg" xmlns:xlink="http://www.w3.org/1999/xlink" width="1233" height="844" viewBox="0 0 1233 844">
  <defs>
    <clipPath id="clip-path">
      <rect id="Rectángulo_45" data-name="Rectángulo 45" width="1233" height="844" transform="translate(862.049 254)" fill="#fff" stroke="#707070" stroke-width="1"/>
    </clipPath>
    <linearGradient id="linear-gradient" x1="28.368" y1="-7.362" x2="11.186" y2="-3.157" gradientUnits="objectBoundingBox">
      <stop offset="0.01"/>
      <stop offset="0.08" stop-opacity="0.69"/>
      <stop offset="0.21" stop-opacity="0.322"/>
      <stop offset="1" stop-opacity="0"/>
    </linearGradient>
    <linearGradient id="linear-gradient-2" x1="30.29" y1="-13.798" x2="11.784" y2="-6.093" xlink:href="#linear-gradient"/>
    <linearGradient id="linear-gradient-3" x1="25.689" y1="-5.007" x2="9.436" y2="-1.917" xlink:href="#linear-gradient"/>
    <linearGradient id="linear-gradient-4" x1="23.676" y1="-3.678" x2="8.29" y2="-1.261" xlink:href="#linear-gradient"/>
    <linearGradient id="linear-gradient-5" x1="0.929" y1="-2.009" x2="-0.014" y2="3.285" xlink:href="#linear-gradient"/>
    <linearGradient id="linear-gradient-6" y1="0.5" x2="1" y2="0.5" gradientUnits="objectBoundingBox">
      <stop offset="0" stop-color="#eaeaea"/>
      <stop offset="1" stop-color="#a3a3a3"/>
    </linearGradient>
    <linearGradient id="linear-gradient-7" x1="-11.383" y1="62.197" x2="-11.169" y2="63.716" xlink:href="#linear-gradient-6"/>
    <linearGradient id="linear-gradient-8" x1="-11.312" y1="67.915" x2="-11.067" y2="68.627" xlink:href="#linear-gradient-6"/>
    <linearGradient id="linear-gradient-9" x1="-154.017" y1="99.668" x2="-150.733" y2="101.452" xlink:href="#linear-gradient"/>
    <linearGradient id="linear-gradient-10" x1="0.306" y1="0.068" x2="1.253" y2="2.273" xlink:href="#linear-gradient"/>
    <linearGradient id="linear-gradient-11" x1="-0.39" y1="0.09" x2="2.354" y2="1.283" gradientUnits="objectBoundingBox">
      <stop offset="0.01" stop-color="#fff"/>
      <stop offset="1" stop-color="#fff" stop-opacity="0"/>
    </linearGradient>
  </defs>
  <g id="Enmascarar_grupo_6" data-name="Enmascarar grupo 6" transform="translate(-862.049 -254)" clip-path="url(#clip-path)">
    <g id="data_processing__monochromatic_1_" data-name="data_processing__monochromatic (1)" transform="translate(914.399 254)">
      <path id="Trazado_113" data-name="Trazado 113" d="M1085.932,797.641c-40.171,51.441-107.424,111.03-176.557,98.56-313.094-56.684-293.986,17.289-559.913-7.086-32.874-3.118-70.187-7.652-112.84-14.171a250.59,250.59,0,0,1-112.013-46.764c-5.567-4.11-11.134-8.361-16.7-12.9C75.185,788.642,44.944,754.773,46,714.244c1.354-50.236,21.289-98.63,42.879-143.907,29.188-61.148,69.81-125.626,59.053-193.718C137.172,309.236,151.69,226.69,189.3,168.943,249.485,78.177,354.8,56.07,460.12,54.016c69.585-1.346,141.2,2.551,204.617,29.547C731.388,111.9,785.1,164.337,852.8,188.64c45.136,16.013,94.485,19.131,138.643,37.2,55.593,22.745,98.472,67.808,126.306,118.541s41.826,107.062,52.283,162.967C1188.014,602.222,1146.264,720.479,1085.932,797.641Z" transform="translate(-45.97 -53.785)" fill="#fff" opacity="0.18"/>
      <path id="Trazado_114" data-name="Trazado 114" d="M390.54,230.125,134.468,178.613V104h3.31v72.06l253.439,51.016Z" transform="translate(150.292 103.55)" fill="#fff"/>
      <path id="Trazado_115" data-name="Trazado 115" d="M440.381,316.814l-54.163-15.376,9.027-151.2,54.088,15.3Z" transform="translate(431.9 149.573)" fill="#fff"/>
      <path id="Trazado_116" data-name="Trazado 116" d="M470.133,288.011l-54.088-15.3,4.514-75.6,54.088,15.3Z" transform="translate(465.264 196.231)" fill="#fff"/>
      <path id="Trazado_117" data-name="Trazado 117" d="M499.285,364.507,445.2,349.131l12.563-211.29,54.163,15.3Z" transform="translate(497.873 137.236)" fill="#fff"/>
      <path id="Trazado_118" data-name="Trazado 118" d="M528.65,404.843l-54.088-15.3,16.324-274.564,54.163,15.3Z" transform="translate(530.721 114.473)" fill="#fff"/>
      <path id="Trazado_119" data-name="Trazado 119" d="M440.381,316.814l-54.163-15.376,9.027-151.2,54.088,15.3Z" transform="translate(431.9 149.573)" fill="url(#linear-gradient)"/>
      <path id="Trazado_120" data-name="Trazado 120" d="M470.133,288.011l-54.088-15.3,4.514-75.6,54.088,15.3Z" transform="translate(465.264 196.231)" fill="url(#linear-gradient-2)"/>
      <path id="Trazado_121" data-name="Trazado 121" d="M499.285,364.507,445.2,349.131l12.563-211.29,54.163,15.3Z" transform="translate(497.873 137.236)" fill="url(#linear-gradient-3)"/>
      <path id="Trazado_122" data-name="Trazado 122" d="M528.65,404.843l-54.088-15.3,16.324-274.564,54.163,15.3Z" transform="translate(530.721 114.473)" fill="url(#linear-gradient-4)"/>
      <path id="Trazado_123" data-name="Trazado 123" d="M448.18,474.186,353.168,514.5c-12.112,5.172-24.223,10.345-36.41,15.3-32.874-3.118-70.187-7.652-112.84-14.171A250.589,250.589,0,0,1,91.906,468.872c-5.567-4.11-11.134-8.361-16.7-12.9l186.412-26.642a385.918,385.918,0,0,0,64.845-13.25c7.523-2.409,44.309-5.031,30.918,12.9a16.5,16.5,0,0,1-6.7,4.464l-61.235,27.917a29.126,29.126,0,0,0-12.488,8.715,9.2,9.2,0,0,0,1.881,13.25,15.153,15.153,0,0,0,7.523,1.2c57.925-1.63,113.818-23.1,171.818-23.453C461.044,466.108,454.047,471.706,448.18,474.186Z" transform="translate(-13.267 305.168)" fill="url(#linear-gradient-5)"/>
      <path id="Trazado_124" data-name="Trazado 124" d="M291.412,290.218l59.053-100.544a4.15,4.15,0,0,1,4.288-1.913L479.63,206.538a5.842,5.842,0,0,1,4.1,2.9,5.239,5.239,0,0,1,.117,4.824L416.89,328.479Z" transform="translate(228.582 79.522)" fill="url(#linear-gradient-6)"/>
      <path id="Trazado_125" data-name="Trazado 125" d="M231.333,241.808l1.58,5.243a5.881,5.881,0,0,0,3.761,3.9l111.712,38.97a9.849,9.849,0,0,0,4.438.638L476.8,283.471a4.689,4.689,0,0,0,3.139-1.513,4.159,4.159,0,0,0,1.073-3.164v-5.031Z" transform="translate(161.377 133.388)" fill="url(#linear-gradient-7)"/>
      <path id="Trazado_126" data-name="Trazado 126" d="M289.885,290.006l59.053-100.827a3.991,3.991,0,0,1,4.213-1.913L478.1,205.972a5.833,5.833,0,0,1,4.046,2.922,5.238,5.238,0,0,1,.091,4.8L415.364,328.2Z" transform="translate(226.874 79.025)" fill="#473f47"/>
      <path id="Trazado_127" data-name="Trazado 127" d="M480.86,276.91l-130.293,7.015a6.83,6.83,0,0,1-2.859-.425L231.333,244.883l124.049-6.164Z" transform="translate(161.377 130.313)" fill="url(#linear-gradient-8)"/>
      <path id="Trazado_128" data-name="Trazado 128" d="M215.142,189.072l105.468,31.46,56.8-2.409L275.323,185.883Z" transform="translate(240.534 185.061)" fill="#473f47"/>
      <path id="Trazado_129" data-name="Trazado 129" d="M204.134,195.355l43.707-3.968L300.725,206.9l-43.481,5.172Z" transform="translate(228.221 190.54)" fill="#473f47"/>
      <path id="Trazado_130" data-name="Trazado 130" d="M253.206,249.549a14.261,14.261,0,0,0,6.244,4.96c3.761,1.346,20.01,7.086,20.01,7.086a5.46,5.46,0,0,0,4.514-1.488Z" transform="translate(185.844 141.094)" fill="#eaeaea"/>
      <path id="Trazado_131" data-name="Trazado 131" d="M245.962,230.729,362.79,266.865l62.137-108.479L301.254,136.421Z" transform="translate(275.01 135.822)" fill="#fff"/>
      <path id="Trazado_132" data-name="Trazado 132" stroke="#f8f8f8" d="M323.121,201.684a12.8,12.8,0,0,1,2.934.921,1.91,1.91,0,0,0,1.279,0" fill="none" transform="translate(264.051 93.445)" stroke-linecap="round" stroke-linejoin="round" stroke-width="0.426" opacity="0.43"/>
      <path id="Trazado_133" data-name="Trazado 133" d="M203.333,416.555a12.577,12.577,0,0,0-1.152,15.579,14.4,14.4,0,0,0,15.445,5.678,6.458,6.458,0,0,0,2.708-1.346c1.73-1.488,1.956-3.968,3.536-5.527a13.359,13.359,0,0,1,5.792-2.338,43.635,43.635,0,0,0,10.381-5.1,6.137,6.137,0,0,0,1.279-1.063,4,4,0,0,0,.527-1.771,12.25,12.25,0,0,0-1.5-9.282,10.018,10.018,0,0,0-3.46-2.551,16.99,16.99,0,0,0-8.2-2.267,23.763,23.763,0,0,0-6.62,1.346,53.08,53.08,0,0,0-16.625,7.582" transform="translate(126.338 297.4)" fill="#fff"/>
      <path id="Trazado_134" data-name="Trazado 134" d="M212.324,398.93l-9.93,31.531s1.881,7.936,12.488,4.606,19.559-28.342,19.559-28.342Z" transform="translate(129.006 289.8)" fill="#fcbcb8"/>
      <path id="Trazado_135" data-name="Trazado 135" d="M280.427,434.207a64.874,64.874,0,0,1,8.275-.5,10.752,10.752,0,0,1,7.523,3.189,9.113,9.113,0,0,1-1.956,12.329,26.022,26.022,0,0,1-13.315,4.96,21.932,21.932,0,0,1-9.1,0c-3.761-.992-7.523-3.826-11.058-2.834a17.812,17.812,0,0,0-4.363,2.551,13.357,13.357,0,0,1-16.851-1.913,15.506,15.506,0,0,1-2.332-4.889,13.628,13.628,0,0,1,4.138-15.446c5.868-3.826,10.381-1.2,16.023.567a58.469,58.469,0,0,0,23.019,1.984Z" transform="translate(166.973 320.418)" fill="#fff"/>
      <path id="Trazado_136" data-name="Trazado 136" d="M273.547,422.9,258.5,455.711a22.081,22.081,0,0,1-14.368,2.551l-6.018-2.055,5.191-45.843Z" transform="translate(168.964 301.182)" fill="#fcbcb8"/>
      <path id="Trazado_137" data-name="Trazado 137" d="M308.824,255.046c.978-1.2,2.257-2.551,3.837-2.338s1.881.779,2.859.567a3.36,3.36,0,0,0,1.429-1.063,48.706,48.706,0,0,1,7.523-5.81,13.367,13.367,0,0,1,5.793-2.622,7.629,7.629,0,0,1,7.523,3.9,11.082,11.082,0,0,1,.978,8.361,28.42,28.42,0,0,1-3.611,7.794,25.24,25.24,0,0,1-3.761,4.96,61.213,61.213,0,0,1-18.054,8.007,5.574,5.574,0,0,1-2.106.638c-1.279,0-2.257-1.063-3.009-2.055a19.092,19.092,0,0,1-4.062-10.2A17.02,17.02,0,0,1,308.824,255.046Z" transform="translate(242.841 135.313)" fill="#fcbcb8"/>
      <path id="Trazado_138" data-name="Trazado 138" d="M288,231.675a3.262,3.262,0,0,1,2.182,0,6.253,6.253,0,0,1,.978.992c1.279,1.2,3.385,1.275,5.04,1.913a7.9,7.9,0,0,1,4.288,5.031,21.893,21.893,0,0,1,.827,6.66,8.841,8.841,0,0,1-.451,3.472,3.132,3.132,0,0,1-2.784,2.055,6.218,6.218,0,0,1-2.859-1.134,8.805,8.805,0,0,0-5.567-.779,36.082,36.082,0,0,0-7.071,2.976,6.392,6.392,0,0,1-5.612.988,5.922,5.922,0,0,1-4.017-3.822c-2.106-4.039-4.363-8.644,0-11.975A32,32,0,0,1,288,231.675Z" transform="translate(205.141 123.114)" fill="#fcbcb8"/>
      <path id="Trazado_139" data-name="Trazado 139" d="M228.6,312.869a426.078,426.078,0,0,0,6.319,51.512c4.062,16.934,6.545,36.136,6.545,36.136L203.85,498.863s22.568,14.171,37.613,8.5,51.831-80.917,51.831-80.917l14.143-85.876L269.824,301.39Z" transform="translate(130.635 192.701)" fill="#473f47"/>
      <path id="Trazado_140" data-name="Trazado 140" d="M304.5,303.7s26.555,79.925,26.555,100.685-32.122,122.934-32.122,122.934-34.83,10.77-42.955,0l-7.673-10.77,19.333-103.236s-27.759-53.779-32.648-67.667A137.9,137.9,0,0,1,228.6,319.57Z" transform="translate(158.319 194.998)" fill="#473f47"/>
      <path id="Trazado_141" data-name="Trazado 141" d="M276.633,202.163a49.773,49.773,0,0,1,5.943,18.139,17.667,17.667,0,0,1-7.974,16.58,20.137,20.137,0,0,0-4.739,2.692c-5.04,4.747.752,13.25-2.181,19.273a10.376,10.376,0,0,1-12.413,4.251,15.844,15.844,0,0,1-9.253-9.991,43.188,43.188,0,0,1-1.655-13.533l-.527-27.138a32.456,32.456,0,0,1,3.009-17.714,19.841,19.841,0,0,1,17.9-8.786C271.819,186.859,273.925,196.778,276.633,202.163Z" transform="translate(175.13 77.732)" fill="#fcbcb8"/>
      <path id="Trazado_142" data-name="Trazado 142" d="M411.724,303.757s-57.1,46.481-61.159,46.481-29.414-29.192-29.414-29.192l-2.031,66.108a176.281,176.281,0,0,1-21.966,9.92,103.07,103.07,0,0,1-41.751,7.581,87.25,87.25,0,0,1-39.87-10.628l17.076-155.881s32.348-21.257,43.406-17.926a75.176,75.176,0,0,0,23.922,0c15.948-1.913,32.272,17.926,32.272,17.926l21.214,63.77,49.725-16.155a16.926,16.926,0,0,1,8.576,18Z" transform="translate(143.702 111.543)" fill="#fff"/>
      <path id="Trazado_143" data-name="Trazado 143" d="M321.52,183.272a57.982,57.982,0,0,0-26.179-7.652,38.251,38.251,0,0,0-28.586,7.581c-10.833,9.353-11.961,24.87-11.811,38.687s.376,28.98-8.726,39.75c-7.523,9.14-20.386,12.9-30.091,19.91a38.388,38.388,0,0,0-17.077,28.342c-2.332,42.513,68.456,24.091,91.777,14.738a37.234,37.234,0,0,0,11.209-6.306,28.96,28.96,0,0,0,7.523-11.974,58.226,58.226,0,0,0-2.633-45.985c-1.053-2.126-2.257-4.747-.752-6.66a7.561,7.561,0,0,1,3.009-1.913,15.314,15.314,0,0,0,9.855-14.029,24.484,24.484,0,0,0-6.169-11.691,12.675,12.675,0,0,1-2.859-12.4c1.655-3.33,5.567-4.96,8.425-7.086a18.61,18.61,0,0,0,4.664-21.257A8.757,8.757,0,0,0,321.52,183.272Z" transform="translate(125.203 67.148)" fill="#f7a463"/>
      <path id="Trazado_144" data-name="Trazado 144" d="M265.385,270.569" transform="translate(199.468 162.019)" fill="#f7a463"/>
      <path id="Trazado_145" data-name="Trazado 145" d="M278.055,281.386l-2.031,66.108a176.261,176.261,0,0,1-21.966,9.92l5.266-97.709Z" transform="translate(186.797 151.203)" fill="#020202" opacity="0.1"/>
      <path id="Trazado_146" data-name="Trazado 146" d="M730.476,508.55,415.05,417.926V415.8c.527-10.345,12.939-254.016,16.7-280.445l5.792.779c-3.611,24.87-15.045,253.095-16.55,277.752l311.063,89.207Z" transform="translate(366.883 27.416)" fill="#fff"/>
      <g id="Grupo_7" data-name="Grupo 7" transform="translate(554.373 336.367)" opacity="0.41">
        <path id="Trazado_147" data-name="Trazado 147" d="M274.893,183.86l-13.165-4.322,6.7-10.983,13.165,4.322Z" transform="translate(-261.728 -168.555)" fill="#fff"/>
      </g>
      <path id="Trazado_148" data-name="Trazado 148" d="M281.071,190.3l-13.165-4.322,11.811-19.556,13.165,4.393Z" transform="translate(299.556 165.691)" fill="#fff"/>
      <g id="Grupo_8" data-name="Grupo 8" transform="translate(580.476 327.439)" opacity="0.5">
        <path id="Trazado_149" data-name="Trazado 149" d="M287.214,197.029l-13.165-4.393,17.377-28.555,13.165,4.393Z" transform="translate(-274.049 -164.081)" fill="#fff"/>
      </g>
      <path id="Trazado_150" data-name="Trazado 150" d="M293.392,203.578l-13.165-4.393,22.643-37.341,13.165,4.393Z" transform="translate(313.339 161.131)" fill="#fff"/>
      <path id="Trazado_151" data-name="Trazado 151" d="M299.57,210.127l-13.165-4.393,27.984-46.127,13.165,4.322Z" transform="translate(320.25 158.904)" fill="#fff"/>
      <path id="Trazado_152" data-name="Trazado 152" d="M299.57,210.127l-13.165-4.393,27.984-46.127,13.165,4.322Z" transform="translate(320.25 158.904)" fill="url(#linear-gradient-9)"/>
      <path id="Trazado_153" data-name="Trazado 153" d="M436.369,315.429l-54.163-15.3,9.027-151.2,54.163,15.3Z" transform="translate(427.411 148.265)" fill="#fff"/>
      <path id="Trazado_154" data-name="Trazado 154" d="M466.2,286.732l-54.163-15.3,4.514-75.673,54.163,15.376Z" transform="translate(460.775 194.888)" fill="#fff"/>
      <path id="Trazado_155" data-name="Trazado 155" d="M495.347,363.122l-54.163-15.3,12.563-211.29,54.163,15.3Z" transform="translate(493.385 135.928)" fill="#fff"/>
      <path id="Trazado_156" data-name="Trazado 156" d="M524.712,403.529l-54.163-15.3L486.873,113.66l54.163,15.3Z" transform="translate(526.232 113.165)" fill="#fff"/>
      <path id="Trazado_157" data-name="Trazado 157" d="M296.486,192.128c0,21.257-14.594,37.553-32.724,36.136h0l-84.1-6.66c-18.13-1.417-32.8-19.91-32.8-41.379s15.045-37.553,32.8-36.136l12.036.921v-3.118c0-19.7,13.541-34.577,30.091-33.231s30.091,18.351,30.091,38.049h0a21.16,21.16,0,0,1,0,3.118l12.112.992C281.817,152.236,296.486,170.73,296.486,192.128Z" transform="translate(66.886 0.758)" fill="#fff"/>
      <path id="Trazado_158" data-name="Trazado 158" d="M296.486,192.128c0,21.257-14.594,37.553-32.724,36.136h0l-84.1-6.66c-18.13-1.417-32.8-19.91-32.8-41.379s15.045-37.553,32.8-36.136l12.036.921v-3.118c0-19.7,13.541-34.577,30.091-33.231s30.091,18.351,30.091,38.049h0a21.16,21.16,0,0,1,0,3.118l12.112.992C281.817,152.236,296.486,170.73,296.486,192.128Z" transform="translate(66.886 0.758)" fill="#fff" opacity="0.53"/>
      <path id="Trazado_159" data-name="Trazado 159" d="M291.281,193.69c0,21.257-14.594,37.553-32.724,36.136h0l-84.1-6.448c-18.13-1.63-32.423-20.123-32.423-41.592s14.669-37.553,32.8-36.136l12.036.921v-3.118c0-19.7,13.466-34.577,30.091-33.231s30.091,18.351,30.091,38.049h0v3.118l12.036.992C276.612,153.8,291.281,172.292,291.281,193.69Z" transform="translate(61.484 2.313)" fill="#fff"/>
      <path id="Trazado_160" data-name="Trazado 160" d="M300.369,211.286l-32.5-55.763,10.08-63.2,3.31.5-9.93,62.14L303.3,209.8Z" transform="translate(299.516 91.921)" fill="#fff"/>
      <path id="Trazado_169" data-name="Trazado 169" d="M0,0,3.132.05,5.053,125.738l-3.132-.05Z" transform="translate(636.153 383.444) rotate(-74.21)" fill="#fff"/>
      <path id="Trazado_161" data-name="Trazado 161" d="M374.61,115.573a32.14,32.14,0,0,1,15.045,7.086l19.183-25.3C381.23,72.28,339.179,80,314.88,114.581a90.586,90.586,0,0,0-8.2,14.171l25.051,10.912C340.608,122.091,358.06,112.242,374.61,115.573Z" transform="translate(245.661 -25.073)" fill="#fff"/>
      <path id="Trazado_162" data-name="Trazado 162" d="M408.538,97.427l-19.183,25.3a32.141,32.141,0,0,0-15.045-7.085c-16.55-3.33-34,6.519-43.18,24.3l-7.523-3.259h0l.526-1.134-17.453-7.582a91.789,91.789,0,0,1,7.523-13.108C338.878,80.068,380.929,72.344,408.538,97.427Z" transform="translate(245.661 -24.996)" fill="url(#linear-gradient-10)"/>
      <path id="Trazado_163" data-name="Trazado 163" d="M333.149,167.112l-19.108,25.224a62.861,62.861,0,0,1-5.266-6.66l17.377-23.028a47.314,47.314,0,0,1-8.726-41.167,54.957,54.957,0,0,1,4.137-11.762l7.523,3.33a51.342,51.342,0,0,0-4.965,12.754,47.336,47.336,0,0,0,9.027,41.309Z" transform="translate(248.004 1.896)" fill="#fff"/>
      <path id="Trazado_164" data-name="Trazado 164" d="M341.8,231.363a56.1,56.1,0,0,1-30.542-17.5l12.112-29.688,7,4.393c14.443,16.864,39.193,15.588,55.141-2.976s17.227-47.19,2.784-63.77a34.7,34.7,0,0,0-3.987-4.039l12.262-29.9,7,4.322c27.608,25.154,30.091,73.548,5.868,108.2-16.926,23.878-42.954,35.924-67.554,30.964Z" transform="translate(250.785 -19.843)" fill="#473f47"/>
      <path id="Trazado_165" data-name="Trazado 165" d="M371.348,113.24a33.609,33.609,0,0,1,15.045,7.085l19.032-25.083c-27.608-25.083-69.66-17.43-93.958,17.218a86.161,86.161,0,0,0-8.125,14.171l24.975,10.983C337.722,119.829,354.873,109.909,371.348,113.24Z" transform="translate(241.927 -27.204)" fill="#fff"/>
      <path id="Trazado_166" data-name="Trazado 166" d="M336.9,168.586,319.82,191.614l-1.73,2.2c-20.838-22.319-24.75-58.881-10.306-90.2l7.523,3.33,17.453,7.581-.527,1.134h0a53.067,53.067,0,0,0-4.137,11.691,47.32,47.32,0,0,0,8.8,41.238Z" transform="translate(237.261 -4.184)" fill="#fff"/>
      <path id="Trazado_167" data-name="Trazado 167" d="M336.9,168.586,319.82,191.614l-1.73,2.2c-20.838-22.319-24.75-58.881-10.306-90.2l7.523,3.33,17.453,7.581-.527,1.134h0a53.067,53.067,0,0,0-4.137,11.691,47.32,47.32,0,0,0,8.8,41.238Z" transform="translate(237.261 -4.184)" fill="url(#linear-gradient-11)"/>
      <path id="Trazado_168" data-name="Trazado 168" d="M338.5,227.077A56.47,56.47,0,0,1,307.959,209.5l19.108-25.3c14.519,16.934,39.193,15.588,55.141-2.905s17.3-47.26,2.783-63.77A29.89,29.89,0,0,0,381,113.5l19.258-25.65c27.608,25.083,30.091,73.548,5.868,108.2-16.776,23.878-42.879,35.853-67.7,30.893Z" transform="translate(247.091 -19.878)" fill="#605860"/>
    </g>
  </g>
</svg>
