<svg xmlns="http://www.w3.org/2000/svg" xmlns:xlink="http://www.w3.org/1999/xlink" width="1193" height="828" viewBox="0 0 1193 828">
  <defs>
    <clipPath id="clip-path">
      <rect id="Rectángulo_65" data-name="Rectángulo 65" width="1193" height="828" fill="#fff" stroke="#707070" stroke-width="1"/>
    </clipPath>
    <linearGradient id="linear-gradient" x1="-1.248" y1="-13.836" x2="0.089" y2="-17.994" gradientUnits="objectBoundingBox">
      <stop offset="0.01"/>
      <stop offset="0.08" stop-opacity="0.69"/>
      <stop offset="0.21" stop-opacity="0.322"/>
      <stop offset="1" stop-opacity="0"/>
    </linearGradient>
    <linearGradient id="linear-gradient-2" x1="-40.262" y1="-14.433" x2="-43.068" y2="-15.471" gradientUnits="objectBoundingBox">
      <stop offset="0.01"/>
      <stop offset="0.13" stop-opacity="0.69"/>
      <stop offset="0.25" stop-opacity="0.322"/>
      <stop offset="1" stop-opacity="0"/>
    </linearGradient>
    <linearGradient id="linear-gradient-3" x1="10.908" y1="-12.886" x2="14.697" y2="-11.439" xlink:href="#linear-gradient-2"/>
    <linearGradient id="linear-gradient-4" x1="2.073" y1="-1.166" x2="-1.524" y2="-3.905" xlink:href="#linear-gradient"/>
    <linearGradient id="linear-gradient-5" x1="1.983" y1="-4.055" x2="-0.91" y2="-8.698" xlink:href="#linear-gradient"/>
    <linearGradient id="linear-gradient-6" x1="1.996" y1="-3.093" x2="-0.897" y2="-6.573" xlink:href="#linear-gradient"/>
    <linearGradient id="linear-gradient-7" x1="0.943" y1="-1.515" x2="1.552" y2="-4.779" xlink:href="#linear-gradient"/>
    <linearGradient id="linear-gradient-8" x1="0.507" y1="-3.558" x2="1.61" y2="-8.477" xlink:href="#linear-gradient"/>
    <linearGradient id="linear-gradient-9" x1="0.774" y1="-4.358" x2="1.233" y2="-7.634" xlink:href="#linear-gradient"/>
    <linearGradient id="linear-gradient-10" x1="1.41" y1="1.032" x2="-1.083" y2="0.039" xlink:href="#linear-gradient"/>
    <linearGradient id="linear-gradient-11" x1="0.656" y1="2.503" x2="0.758" y2="-0.194" xlink:href="#linear-gradient"/>
    <linearGradient id="linear-gradient-12" x1="0.388" y1="5.551" x2="1.541" y2="-1.35" xlink:href="#linear-gradient"/>
    <linearGradient id="linear-gradient-13" x1="0.46" y1="3.398" x2="1.285" y2="-2.336" xlink:href="#linear-gradient"/>
    <linearGradient id="linear-gradient-14" x1="0.002" y1="1.873" x2="1.219" y2="-7.457" xlink:href="#linear-gradient"/>
    <linearGradient id="linear-gradient-15" x1="-0.405" y1="8.559" x2="1.946" y2="6.28" xlink:href="#linear-gradient-2"/>
    <linearGradient id="linear-gradient-16" x1="0.059" y1="20.06" x2="1.636" y2="19.04" xlink:href="#linear-gradient-2"/>
    <linearGradient id="linear-gradient-17" x1="0.24" y1="16.625" x2="0.899" y2="19.435" xlink:href="#linear-gradient-2"/>
    <linearGradient id="linear-gradient-18" x1="-0.063" y1="37.697" x2="1.681" y2="34.972" xlink:href="#linear-gradient-2"/>
    <linearGradient id="linear-gradient-19" x1="-71.734" y1="37.074" x2="-68.243" y2="33.957" xlink:href="#linear-gradient"/>
  </defs>
  <g id="Enmascarar_grupo_12" data-name="Enmascarar grupo 12" clip-path="url(#clip-path)">
    <g id="online_campaign_monochromatic" transform="translate(90.418 71.205)">
      <path id="Trazado_391" data-name="Trazado 391" d="M349.462,110.58c-19,15.949-34.74,34.223-51.5,51.764-62.731,65.716-126.59,126.781-181.546,197.021S18.019,516.653,61.933,591.721c29.608,50.728,88.7,86.694,152.053,109.038a505.987,505.987,0,0,0,172.02,29.168c123.813-1.188,238.607-50.323,359.683-71.453C799.37,649.1,854.543,645.2,907.6,633.855c37.632-8.038,74.456-19.993,105.743-38.772,86.492-51.84,117.1-150.868,91.562-235.718S1006.067,203.391,920.2,150.844C774.551,61.7,498.249-14.305,349.462,110.58Z" transform="translate(-43.916 -44.931)" fill="#424242" opacity="0.18"/>
      <path id="Trazado_392" data-name="Trazado 392" d="M173.932,293.334,112.91,291.1l7.571,49.475,43.239,1.6Z" transform="translate(486.383 228.65)" fill="#424242"/>
      <path id="Trazado_393" data-name="Trazado 393" d="M173.932,293.334,112.91,291.1l7.571,49.475,43.239,1.6Z" transform="translate(486.383 228.65)" fill="url(#linear-gradient)"/>
      <path id="Trazado_394" data-name="Trazado 394" d="M151.033,244.256a26.691,26.691,0,0,0-2.168,11.185c-.762,17.538-.644,35.422,3.98,52.151,6.775,24.6,22.559,44.451,37.9,63.528-1.152-2.1,2.253-13.225,2.71-15.882.9-5.2,1.914-10.376,2.862-15.555,1.524-8.2,0-16.825-1.8-24.892a125.5,125.5,0,0,0-22.407-49.514,104.124,104.124,0,0,0-21.086-21.022Z" transform="translate(443.162 156.081)" fill="#424242"/>
      <path id="Trazado_395" data-name="Trazado 395" d="M151.033,244.256a26.691,26.691,0,0,0-2.168,11.185c-.762,17.538-.644,35.422,3.98,52.151,6.775,24.6,22.559,44.451,37.9,63.528-1.152-2.1,2.253-13.225,2.71-15.882.9-5.2,1.914-10.376,2.862-15.555,1.524-8.2,0-16.825-1.8-24.892a125.5,125.5,0,0,0-22.407-49.514,104.124,104.124,0,0,0-21.086-21.022Z" transform="translate(443.162 156.081)" fill="url(#linear-gradient-2)"/>
      <path id="Trazado_396" data-name="Trazado 396" d="M215.6,308.733c5.183-13.091,10.416-26.355,12.364-40.543s.22-29.589-7.418-41.024q-14.786,25.469-29.6,50.919c-5.691,9.8-11.483,19.809-14.277,31.129-4.895,19.848-.542,50.38,11.093,66.474,6.639-6.449,9.738-21.176,13.329-30.282Z" transform="translate(446.948 150.936)" fill="#424242"/>
      <path id="Trazado_397" data-name="Trazado 397" d="M215.6,308.733c5.183-13.091,10.416-26.355,12.364-40.543s.22-29.589-7.418-41.024q-14.786,25.469-29.6,50.919c-5.691,9.8-11.483,19.809-14.277,31.129-4.895,19.848-.542,50.38,11.093,66.474,6.639-6.449,9.738-21.176,13.329-30.282Z" transform="translate(446.948 150.936)" fill="url(#linear-gradient-3)"/>
      <path id="Trazado_398" data-name="Trazado 398" d="M154.982,322.944l65.443,2.406c5.446.2,9.729,5.359,9.586,11.551h0c-.184,6.183-4.721,11.039-10.162,10.877l-65.51-2.233c-5.442-.209-9.719-5.363-9.586-11.551h0a12.041,12.041,0,0,1,3.086-7.952,9.291,9.291,0,0,1,7.144-3.1Z" transform="translate(442.617 179.77)" fill="#424242"/>
      <path id="Trazado_399" data-name="Trazado 399" d="M257.6,275.935l21.1,56.386,65.578,12.321-21.1-66.108Z" transform="translate(507.312 224.084)" fill="#424242"/>
      <path id="Trazado_400" data-name="Trazado 400" d="M257.6,275.935l21.1,56.386,65.578,12.321-21.1-66.108Z" transform="translate(507.312 224.084)" fill="url(#linear-gradient-4)"/>
      <path id="Trazado_401" data-name="Trazado 401" d="M281.372,319.273l-42.206,12.321,86.393,28.2,21.391-28.2Z" transform="translate(504.645 237.132)" fill="url(#linear-gradient-5)"/>
      <path id="Trazado_402" data-name="Trazado 402" d="M281.372,319.273l-42.206,12.321L315.3,373.33l31.654-41.736Z" transform="translate(504.645 237.132)" fill="#424242"/>
      <path id="Trazado_403" data-name="Trazado 403" d="M281.372,319.273l-42.206,12.321L315.3,373.33l31.654-41.736Z" transform="translate(504.645 237.132)" fill="url(#linear-gradient-6)"/>
      <path id="Trazado_404" data-name="Trazado 404" d="M246.757,275.935l21.1,56.386,65.6,12.321-21.1-66.108Z" transform="translate(505.743 224.084)" fill="#424242"/>
      <path id="Trazado_405" data-name="Trazado 405" d="M262.592,318.249l57.838-14.419-8.079-25.3-65.595-2.6Z" transform="translate(505.743 224.084)" fill="url(#linear-gradient-7)"/>
      <path id="Trazado_406" data-name="Trazado 406" d="M270.524,319.273l-42.189,12.321,86.393,28.2,21.391-28.2Z" transform="translate(503.079 237.132)" fill="#424242"/>
      <path id="Trazado_407" data-name="Trazado 407" d="M270.524,319.273l-42.189,12.321,86.393,28.2,21.391-28.2Z" transform="translate(503.079 237.132)" fill="url(#linear-gradient-8)"/>
      <path id="Trazado_408" data-name="Trazado 408" d="M315,356.946l2.134,13.533-90.678-31.033,2.151-10.7Z" transform="translate(502.807 239.983)" fill="#424242"/>
      <path id="Trazado_409" data-name="Trazado 409" d="M315,356.946l2.134,13.533-90.678-31.033,2.151-10.7Z" transform="translate(502.807 239.983)" fill="url(#linear-gradient-9)"/>
      <path id="Trazado_410" data-name="Trazado 410" d="M471.683,142.17V395.379a11.527,11.527,0,0,1-2.78,7.61,8.907,8.907,0,0,1-6.7,3.133h-1.016L211.487,374.434c-4.813-.572-8.468-5.184-8.468-10.684V171.085c0-5.5,3.656-10.113,8.469-10.684l249.694-28.876c5.19-.653,9.865,3.593,10.45,9.491Q471.683,141.593,471.683,142.17Z" transform="translate(451.046 122.12)" fill="#424242"/>
      <path id="Trazado_411" data-name="Trazado 411" d="M471.683,142.17V395.379a11.527,11.527,0,0,1-2.78,7.61,8.907,8.907,0,0,1-6.7,3.133h-1.016L211.487,374.434c-4.813-.572-8.468-5.184-8.468-10.684V171.085c0-5.5,3.656-10.113,8.469-10.684l249.694-28.876c5.19-.653,9.865,3.593,10.45,9.491Q471.683,141.593,471.683,142.17Z" transform="translate(451.046 122.12)" fill="url(#linear-gradient-10)"/>
      <path id="Trazado_412" data-name="Trazado 412" d="M466.208,142.176V395.385a11.528,11.528,0,0,1-2.78,7.609,8.907,8.907,0,0,1-6.7,3.133h-1.016L206.013,374.44c-4.813-.572-8.468-5.184-8.468-10.684V171.091c0-5.5,3.656-10.113,8.469-10.684l249.8-28.915c5.2-.593,9.831,3.718,10.348,9.626q.05.528.051,1.059Z" transform="translate(450.254 122.114)" fill="#424242"/>
      <path id="Trazado_413" data-name="Trazado 413" d="M166.221,298.379V122L402.7,100.171V313.048Z" transform="translate(494.094 171.166)" fill="url(#linear-gradient-11)"/>
      <path id="Trazado_414" data-name="Trazado 414" d="M363.555,213.875H221.322V136.563l142.233-7.2Z" transform="translate(502.064 179.955)" fill="url(#linear-gradient-12)"/>
      <path id="Trazado_415" data-name="Trazado 415" d="M363.555,281.32l-142.233-8.586V200.5H363.555Z" transform="translate(502.064 201.374)" fill="url(#linear-gradient-13)"/>
      <path id="Trazado_416" data-name="Trazado 416" d="M466.208,313.672v31.745a11.528,11.528,0,0,1-2.78,7.609,8.907,8.907,0,0,1-6.7,3.133h-1.016L206.013,324.471c-4.813-.572-8.468-5.184-8.468-10.684V297.4Z" transform="translate(450.254 172.083)" fill="url(#linear-gradient-14)"/>
      <path id="Trazado_417" data-name="Trazado 417" d="M237.9,187.683c0,2.464-3.489,4.793-5.2,5.371a10.481,10.481,0,0,0-2.083.751,2.306,2.306,0,0,0-1.084,2.021c.085.712.593,1.29.728,1.925a4.343,4.343,0,0,1-.186,1.925c-.661,2.368-3.252,3.85-3.878,6.257-3.591-.424-5.2,0-8.756-.751l-2.9-2.175,4.471-9.51a20.266,20.266,0,0,1,2.117-3.754,14.96,14.96,0,0,1,3.286-2.984,80.937,80.937,0,0,1,9.688-6.141C233.6,180.849,237.9,187.048,237.9,187.683Z" transform="translate(452.713 136.921)" fill="url(#linear-gradient-15)"/>
      <path id="Trazado_418" data-name="Trazado 418" d="M245.56,110.711l-.356.154a46.834,46.834,0,0,1-5.962,1.675l-4.59,1.232a9.073,9.073,0,0,1-4.3.809,7.26,7.26,0,0,1,2.913-3.677c.982-.539,2.117-.712,3.082-1.29a5.775,5.775,0,0,0,2.2-6.43,4.082,4.082,0,0,0-1.118-1.81,3.721,3.721,0,0,0-4.878.751,43.528,43.528,0,0,0-3.387,4.639,75.28,75.28,0,0,1-6.317,5.775c-2.032,2.06-3.641,5.2-2.862,8.162s4.116,2.618,6.436,2.618a35.5,35.5,0,0,0,8.638-1.213c2.794-.693,5.555-1.579,8.333-2.406a27.826,27.826,0,0,1,4.065-1.117,7.514,7.514,0,0,0,2.693-.385,5.624,5.624,0,0,0,1.948-1.925,8.472,8.472,0,0,0,1.694-4.389c.1-2.272-1.253-4.485-3.387-3.85a40.656,40.656,0,0,0-4.844,2.676Z" transform="translate(453.471 112.883)" fill="#f9c6d6"/>
      <path id="Trazado_419" data-name="Trazado 419" d="M234.17,179.9a5.234,5.234,0,0,1,0,4.1,3.04,3.04,0,0,1-1.3,1.059,3.226,3.226,0,0,1-3.743-.443A5.92,5.92,0,0,1,228,182.168,66.244,66.244,0,0,1,225.989,172a2.18,2.18,0,0,1,0-.943,1.513,1.513,0,0,1,.711-.751c1.575-.982,4.065-1.752,4.962.4a79.854,79.854,0,0,1,2.507,9.183Z" transform="translate(454.361 133.523)" fill="#f9c6d6"/>
      <path id="Trazado_420" data-name="Trazado 420" d="M229.7,178.978a1.789,1.789,0,0,0-1,.116,1.641,1.641,0,0,0-.559.558l-3.387,4.466c-.661.866-1.372,2.06-.9,3.061a1.977,1.977,0,0,0,1.49,1.02,7.742,7.742,0,0,0,4.81-1.04c1.067-.539,2.117-1.117,3.133-1.752a5.246,5.246,0,0,0,1.948-1.752c.779-1.386,1.016-4.716-.373-5.775-.711-.52-1.338-.154-2,.212a6.238,6.238,0,0,1-3.167.886Z" transform="translate(454.038 136.019)" fill="#424242"/>
      <path id="Trazado_421" data-name="Trazado 421" d="M216.459,190.892a1.877,1.877,0,0,0,0,.751,1.315,1.315,0,0,0,.508.577,3.861,3.861,0,0,0,2.219.847,2.426,2.426,0,0,0,2.083-1.078,5.252,5.252,0,0,0,.644-2.214,31.267,31.267,0,0,0,.44-5.179,1.048,1.048,0,0,0-.2-.674.791.791,0,0,0-.389-.173c-1.253-.308-3.709-1.059-4.336.693a22.985,22.985,0,0,0-.965,6.449Z" transform="translate(452.985 137.736)" fill="#f9c6d6"/>
      <path id="Trazado_422" data-name="Trazado 422" d="M212.566,189.136a10.2,10.2,0,0,0-3.116.674,4.255,4.255,0,0,0-2.286,2.426,3.023,3.023,0,0,0,0,1.733,3.652,3.652,0,0,0,1.694,1.925,19.275,19.275,0,0,0,11.585,2.868,3.683,3.683,0,0,0,2.795-1.174,5.792,5.792,0,0,0,.745-3.253l.135-5.41a5.5,5.5,0,0,0-2.574.847c-1.473.578-2.049-.809-3.286-1.136A17.191,17.191,0,0,0,212.566,189.136Z" transform="translate(451.627 139.319)" fill="#424242"/>
      <path id="Trazado_423" data-name="Trazado 423" d="M229.7,178.978a1.789,1.789,0,0,0-1,.116,1.641,1.641,0,0,0-.559.558l-3.387,4.466c-.661.866-1.372,2.06-.9,3.061a1.977,1.977,0,0,0,1.49,1.02,7.742,7.742,0,0,0,4.81-1.04c1.067-.539,2.117-1.117,3.133-1.752a5.246,5.246,0,0,0,1.948-1.752c.779-1.386,1.016-4.716-.373-5.775-.711-.52-1.338-.154-2,.212a6.238,6.238,0,0,1-3.167.886Z" transform="translate(454.038 136.019)" fill="url(#linear-gradient-16)"/>
      <path id="Trazado_424" data-name="Trazado 424" d="M212.566,189.136a10.2,10.2,0,0,0-3.116.674,4.255,4.255,0,0,0-2.286,2.426,3.023,3.023,0,0,0,0,1.733,3.652,3.652,0,0,0,1.694,1.925,19.275,19.275,0,0,0,11.585,2.868,3.683,3.683,0,0,0,2.795-1.174,5.792,5.792,0,0,0,.745-3.253l.135-5.41a5.5,5.5,0,0,0-2.574.847c-1.473.578-2.049-.809-3.286-1.136A17.191,17.191,0,0,0,212.566,189.136Z" transform="translate(451.627 139.319)" fill="url(#linear-gradient-17)"/>
      <path id="Trazado_425" data-name="Trazado 425" d="M223.46,144.59a4.12,4.12,0,0,0-2.855,1.756,5.281,5.281,0,0,0-.922,3.538,1.314,1.314,0,0,0,.1.616,99.789,99.789,0,0,0,5.284,31.957,2.8,2.8,0,0,0,1.186,1.81,2.074,2.074,0,0,0,1.592,0,56.046,56.046,0,0,0,6.148-2.349l-2.727-20.772a3.415,3.415,0,0,1,.085-1.752,2.817,2.817,0,0,1,.813-.963,73.068,73.068,0,0,1,9.789-6.93c2.727-1.6,5.843-3.427,6.588-6.834a4.283,4.283,0,0,0-.525-3.35,4.982,4.982,0,0,0-1.507-1.136,11.337,11.337,0,0,0-6.165-2.118c-1.694.212-2.3,1.309-3.692,2.137C232.775,142.357,227.643,143.242,223.46,144.59Z" transform="translate(453.453 124.109)" fill="#282328"/>
      <path id="Trazado_426" data-name="Trazado 426" d="M239.131,125.806a1.247,1.247,0,0,0-.237-.558.8.8,0,0,0-.576-.173,56.23,56.23,0,0,0-21.035,2.541,28.247,28.247,0,0,0,2.439,5.987c2.744,5.467,5.487,10.954,8.282,16.4a5.116,5.116,0,0,0,2.206,3.093,4.085,4.085,0,0,0,3.484.411l.39-.154,10.551-2.426c1.694-.385-1.694-10.3-2.3-12.128C241.011,134.565,240.13,130.157,239.131,125.806Z" transform="translate(453.109 120.157)" fill="#fff"/>
      <path id="Trazado_427" data-name="Trazado 427" d="M249.695,154.369a37.5,37.5,0,0,1-4.912-2.637c-6-3.85-1.084-5.775.915-10.3,1.423-3.273.847-7.181.1-10.723-1.3-6.218-3.049-12.667-1.694-18.885a6.432,6.432,0,0,1,2.27-4.216,13.074,13.074,0,0,1,4.3-2.888,10.991,10.991,0,0,1,9.23,1.328c11.6,6.719,11.534,28.164,10.433,40.774a17.134,17.134,0,0,1-2.2,8.278c-2.286,3.427-4.42,2.195-7.317,1.617C256.91,155.966,253.421,156.024,249.695,154.369Z" transform="translate(456.671 113.926)" fill="#424242"/>
      <path id="Trazado_428" data-name="Trazado 428" d="M255.714,114.868a5.551,5.551,0,0,1-4.031,2.406.953.953,0,0,1-.711-.193,1.465,1.465,0,0,1-.356-.963c0-.712-.152-1.636-.22-2.541s-.2-2.041-.288-2.83a12.034,12.034,0,0,0-2-5.775,6.07,6.07,0,0,0-.8-.982c-1.931-1.925,5.945-1.194,6.978-3.85,1.2,1.752,1.1,4.235,1.694,6.391a29.715,29.715,0,0,1,.881,3.215,7.113,7.113,0,0,1-1.152,5.121Z" transform="translate(457.409 112.691)" fill="#f9c6d6"/>
      <path id="Trazado_429" data-name="Trazado 429" d="M250.358,113.343l-.1-.4c-.1-1.02-.2-2.041-.288-2.83a12.034,12.034,0,0,0-2-5.775v-.212s6.233-4.659,6.91.789S250.358,113.343,250.358,113.343Z" transform="translate(457.548 113.331)" fill="url(#linear-gradient-18)"/>
      <path id="Trazado_430" data-name="Trazado 430" d="M244.335,104.286a6.463,6.463,0,0,0,.525,3.292,4.564,4.564,0,0,0,.932,1.1,6.685,6.685,0,0,0,8.688-.5,13.4,13.4,0,0,0,3.861-9.433,7.924,7.924,0,0,0-1.287-5.236,4.678,4.678,0,0,0-4.691-1.482,11.6,11.6,0,0,0-5.945,3.85C244.843,97.875,244.453,101.726,244.335,104.286Z" transform="translate(457.017 110.202)" fill="#f9c6d6"/>
      <path id="Trazado_431" data-name="Trazado 431" d="M226.019,159.064a23.165,23.165,0,0,0-3,6.237,140.075,140.075,0,0,0-7.588,34.228,33.789,33.789,0,0,0,9.654,0,118.891,118.891,0,0,1,3.387-24.6,17.1,17.1,0,0,1,1.694-4.851,15.288,15.288,0,0,1,6.029-5.063,81.566,81.566,0,0,1,16.191-6.988c2.354-.751,4.725-1.425,7.046-2.329a16.618,16.618,0,0,0,5.487-3.215c2.9-2.753,5.081-8.778,1.253-11.743a11.723,11.723,0,0,0-6.012-1.81l-6.47-.693a3.433,3.433,0,0,0-3.387,1.1c-4.81,4.216-9.738,7.97-14.786,11.8C232.336,153.519,228.525,155.714,226.019,159.064Z" transform="translate(452.842 124.131)" fill="#473f47"/>
      <path id="Trazado_432" data-name="Trazado 432" d="M268.907,116.951a3.648,3.648,0,0,0,.135,1.194,142.781,142.781,0,0,1-.135,17.653c-.119,3.619-.542,10.55-3.878,12.4-6.267,3.484-18.308,2.137-18.308,2.137a9.376,9.376,0,0,0-4.2.193c-.762.27-1.44.732-2.185,1.059a13.485,13.485,0,0,1-8.35,0,3.3,3.3,0,0,1-1.372-.539,3.176,3.176,0,0,1-.22-3.985,6.068,6.068,0,0,1,3.387-2.118,17.141,17.141,0,0,1,10.839-.481c.474.154.932.327,1.406.443a8.361,8.361,0,0,0,1.694.116h4.251c4.895,0,9.5,0,10.162-6.545a42.88,42.88,0,0,0,.169-7.373c-.288-4.447-1.3-8.836-1.084-13.283a9.69,9.69,0,0,1,.881-4.043,3.523,3.523,0,0,1,2.93-2.137,3.722,3.722,0,0,1,3.032,2.329,10.58,10.58,0,0,1,.847,2.984Z" transform="translate(454.919 116.153)" fill="#f9c6d6"/>
      <path id="Trazado_433" data-name="Trazado 433" d="M253.61,102.581a19.642,19.642,0,0,1,.271,4.1c.83-.847.779-2.945,1.88-2.888.66,0,.965,1.078.66,1.752a2.484,2.484,0,0,1-1.694,1.232c-.186,2.888,1.829,4.851,3.489,6.6a15.909,15.909,0,0,1,3.692,7.45,48.007,48.007,0,0,1,.711,11.031c.9-.809,2.168-.385,3.3-.25,3.489.183,6.592-2.5,7.367-6.372a9.847,9.847,0,0,0-3.828-9.76,6.5,6.5,0,0,1-2.49-2.041c-.745-1.348-.3-3.138-.254-4.755a7.87,7.87,0,0,0-5.284-7.7,12.523,12.523,0,0,0,1.152-4.081,7.506,7.506,0,0,0-1.965-5.14,14.256,14.256,0,0,0-4.234-3.042,6.086,6.086,0,0,0-4.624-.9,6.783,6.783,0,0,0-3.557,4.7,2.066,2.066,0,0,0-2.608.6,4.508,4.508,0,0,0-.9,3.022,6.825,6.825,0,0,0,.389,2.1c.593-.809,1.3-1.6,2.015-1.02s1.152,1.771,1.8,2.426a12.556,12.556,0,0,0,2.32,1.752A12.784,12.784,0,0,1,253.61,102.581Z" transform="translate(457.074 108.942)" fill="#f86938"/>
      <path id="Trazado_434" data-name="Trazado 434" d="M242.716,101.154l-.593,3.735a2.022,2.022,0,0,1-1.694,1.925c-3.2-.635-11.043-1.925-16.632-.231a54.9,54.9,0,0,0-8.926,3.465c-1.152.578-2.286-.886-2.1-2.657L214.8,87.428c.186-1.752,1.524-2.618,2.507-1.6,4.031,4.139,13.38,12.417,23.83,12.378C242.174,98.209,242.953,99.633,242.716,101.154Z" transform="translate(452.454 108.252)" fill="#424242"/>
      <path id="Trazado_438" data-name="Trazado 438" d="M12.611.03C19.538-.035,25.128,2.272,25.1,5.183s-5.672,5.325-12.6,5.39S-.019,8.332.012,5.421,5.684.1,12.611.03Z" transform="matrix(0.079, -0.997, 0.997, 0.079, 660.945, 217.877)" fill="#424242"/>
      <path id="Trazado_439" data-name="Trazado 439" d="M12.611.03C19.538-.035,25.128,2.272,25.1,5.183s-5.672,5.325-12.6,5.39S-.019,8.332.012,5.421,5.684.1,12.611.03Z" transform="matrix(0.079, -0.997, 0.997, 0.079, 660.945, 217.877)" fill="url(#linear-gradient-19)"/>
      <path id="Trazado_440" data-name="Trazado 440" d="M1.821.11,3.875.035A1.442,1.442,0,0,1,5.469,1.468L5.395,3.322A1.735,1.735,0,0,1,3.68,4.876l-2.054.075A1.442,1.442,0,0,1,.031,3.518L.106,1.664A1.735,1.735,0,0,1,1.821.11Z" transform="translate(683.641 226.55) rotate(-71.6)" fill="#424242"/>
      <path id="Trazado_435" data-name="Trazado 435" d="M476.055,270.467H337.481c-5.852-.011-10.593-5.4-10.6-12.051V200.393c0-6.458,4.486-11.764,10.162-12.032l138.54-7.3a9.841,9.841,0,0,1,7.625,3.106,12.742,12.742,0,0,1,3.451,8.329v65.915c0,6.656-4.747,12.051-10.6,12.051Z" transform="translate(468.962 137.051)" fill="#fff" opacity="0.89"/>
      <path id="Trazado_436" data-name="Trazado 436" d="M394.532,183.891,295.4,189.531c-3.928.286-7.317-3.1-7.571-7.566q-.013-.279,0-.558V140.268c.058-4.647,3.18-8.5,7.249-8.952l99.18-10.819a6.625,6.625,0,0,1,5.558,2.029,8.672,8.672,0,0,1,2.385,6.057V174.92c-.051,4.834-3.422,8.777-7.672,8.971Z" transform="translate(463.313 118.806)" fill="#fff"/>
      <path id="Trazado_437" data-name="Trazado 437" d="M253.7,274.8l-71.726-3.85c-4.157-.226-7.423-4.125-7.418-8.855V228.755c0-4.843,3.429-8.784,7.69-8.836l71.725-.9c4.3-.053,7.829,3.868,7.876,8.759v38.252a9.467,9.467,0,0,1-2.325,6.245,7.313,7.313,0,0,1-5.534,2.533Z" transform="translate(446.928 148.481)" fill="#fff"/>
    </g>
  </g>
</svg>
