<svg xmlns="http://www.w3.org/2000/svg" xmlns:xlink="http://www.w3.org/1999/xlink" width="683" height="455" viewBox="0 0 683 455">
  <defs>
    <clipPath id="clip-path">
      <rect id="Rectángulo_50" data-name="Rectángulo 50" width="683" height="455" fill="#fff" stroke="#707070" stroke-width="1"/>
    </clipPath>
    <linearGradient id="linear-gradient" x1="-21.565" y1="-0.043" x2="-23.023" y2="1.543" gradientUnits="objectBoundingBox">
      <stop offset="0.01"/>
      <stop offset="0.13" stop-opacity="0.69"/>
      <stop offset="0.25" stop-opacity="0.322"/>
      <stop offset="1" stop-opacity="0"/>
    </linearGradient>
    <linearGradient id="linear-gradient-2" x1="-1.693" y1="1.201" x2="2.935" y2="-0.277" xlink:href="#linear-gradient"/>
    <linearGradient id="linear-gradient-3" x1="0.466" y1="-3.053" x2="0.59" y2="9.744" gradientUnits="objectBoundingBox">
      <stop offset="0.01"/>
      <stop offset="0.08" stop-opacity="0.69"/>
      <stop offset="0.21" stop-opacity="0.322"/>
      <stop offset="1" stop-opacity="0"/>
    </linearGradient>
    <linearGradient id="linear-gradient-4" x1="195.877" y1="354.237" x2="195.872" y2="362.001" gradientUnits="objectBoundingBox">
      <stop offset="0" stop-color="#fff"/>
      <stop offset="1" stop-color="#cbcbcb"/>
    </linearGradient>
    <linearGradient id="linear-gradient-5" x1="900.95" y1="137.661" x2="901.112" y2="140.035" xlink:href="#linear-gradient-4"/>
    <linearGradient id="linear-gradient-6" x1="-2.865" y1="0.383" x2="12.285" y2="0.909" xlink:href="#linear-gradient"/>
    <linearGradient id="linear-gradient-7" x1="0.165" y1="-1.453" x2="0.855" y2="2.471" xlink:href="#linear-gradient-3"/>
    <linearGradient id="linear-gradient-8" x1="-2.445" y1="0.509" x2="9.473" y2="0.474" xlink:href="#linear-gradient"/>
    <linearGradient id="linear-gradient-9" x1="-1.067" y1="-0.235" x2="7.789" y2="4.715" xlink:href="#linear-gradient"/>
    <linearGradient id="linear-gradient-10" x1="-3.628" y1="0.256" x2="6.842" y2="0.858" xlink:href="#linear-gradient"/>
  </defs>
  <g id="Enmascarar_grupo_8" data-name="Enmascarar grupo 8" clip-path="url(#clip-path)">
    <g id="video_tutorial__monochromatic" transform="translate(22.144 -11.699)">
      <path id="Trazado_208" data-name="Trazado 208" d="M291.774,58.051a214.53,214.53,0,0,0-41.7-10.813c-53.143-8.055-111.31,6.876-147.566,44.912C82.476,113.2,69.967,139.8,59.835,166.6,38.09,224.067,25.643,283.53,25.706,344.492c.24,35.566,14.911,69.645,40.9,95.021,36.61,35.378,90.754,48.69,142.645,51.308s103.951-3.9,155.843-1.219c49.1,2.538,97.988,13.312,147,9.714s100.969-25.7,120.359-69.037c21.015-47.011,3.628-129.279-38.153-161.02-47.139-35.8-106.015-54.786-151.193-93.042-19.848-16.77-36.13-37.017-54.561-55.206C361.179,94.048,328.218,71.422,291.774,58.051Z" transform="translate(-25.705 -45.121)" fill="none" opacity="0.18"/>
      <path id="Trazado_209" data-name="Trazado 209" d="M175.049,213.045c.146,5.137,2.794,9.854,5.441,14.331,11.967,20.287,25.414,40.275,43.97,55.345,27.291,22.126,63.025,31.68,97.55,40.615-3.086-1.439-6.8-16.69-8.173-19.988-2.669-6.556-5.17-13.192-7.735-19.788-4.045-10.434-12.509-18.828-20.849-26.5a166.834,166.834,0,0,0-66.528-37.417,162.8,162.8,0,0,0-43.678-6.6Z" transform="translate(15.965 -7.136)" fill="#424242"/>
      <path id="Trazado_210" data-name="Trazado 210" d="M175.049,213.045c.146,5.137,2.794,9.854,5.441,14.331,11.967,20.287,25.414,40.275,43.97,55.345,27.291,22.126,63.025,31.68,97.55,40.615-3.086-1.439-6.8-16.69-8.173-19.988-2.669-6.556-5.17-13.192-7.735-19.788-4.045-10.434-12.509-18.828-20.849-26.5a166.834,166.834,0,0,0-66.528-37.417,162.8,162.8,0,0,0-43.678-6.6Z" transform="translate(15.965 -7.136)" fill="url(#linear-gradient)"/>
      <path id="Trazado_211" data-name="Trazado 211" d="M292.8,239.917c-2.815-18.868-5.713-37.976-13.635-55.505s-21.662-33.419-40.3-39.975q-.813,40.575-1.647,81.109c-.313,15.63-.584,31.54,4.17,46.511,8.214,26.224,36.652,57,64.067,65.679,4.17-12.612-2.752-31.7-4.691-44.772Z" transform="translate(33.271 -22.655)" fill="#424242"/>
      <path id="Trazado_212" data-name="Trazado 212" d="M292.8,239.917c-2.815-18.868-5.713-37.976-13.635-55.505s-21.662-33.419-40.3-39.975q-.813,40.575-1.647,81.109c-.313,15.63-.584,31.54,4.17,46.511,8.214,26.224,36.652,57,64.067,65.679,4.17-12.612-2.752-31.7-4.691-44.772Z" transform="translate(33.271 -22.655)" fill="url(#linear-gradient-2)"/>
      <path id="Trazado_213" data-name="Trazado 213" d="M477.726,365.777c-116.356,14.311-234.254,3.318-351.569,3.638-8.485,0-20.119,3.378-18.764,11.413,68.237,15.45,138.976,16.67,209.069,17.789l127.572,2c29.188.46,58.376.939,87.46-.66,10.862-.58,21.974-1.519,31.731-6.1,27.478-12.892,13.864-29.821-9.82-32.68C528.242,358.241,502.619,362.719,477.726,365.777Z" transform="translate(-2.942 26.156)" fill="url(#linear-gradient-3)"/>
      <path id="Trazado_214" data-name="Trazado 214" d="M264.146,115.149V417.88c0,13.092,12.113,23.685,27.1,23.645l144.4-.22c14.907,0,27.1-10.633,27.1-23.725V114.849c0-13.092-12.092-23.685-27.1-23.665l-144.5.22C276.259,91.424,264.146,102.057,264.146,115.149Zm13.781.2c0-8,7.464-14.611,16.679-14.631h20.348v1.8a10.038,10.038,0,0,0,10.654,9.314l77.6-.12a10.1,10.1,0,0,0,10.674-9.354v-1.8H434.9c9.194,0,16.679,6.516,16.679,14.571V416.941c0,7.995-7.464,14.611-16.679,14.631l-140.29.2c-9.194,0-16.679-6.516-16.679-14.571Z" transform="translate(40.826 -34.701)" fill="#424242"/>
      <path id="Trazado_215" data-name="Trazado 215" d="M258.833,120.135V422.966c0,13.072,12.113,23.665,27.1,23.645l144.376-.22c14.907,0,27.1-10.653,27.1-23.745V119.915c0-13.072-12.113-23.685-27.1-23.645l-144.376.2C270.945,96.509,258.833,107.143,258.833,120.135Zm13.781.22c0-8,7.464-14.611,16.679-14.631H309.64v1.8a10.079,10.079,0,0,0,10.674,9.334l77.6-.12a10.1,10.1,0,0,0,10.654-9.354v-1.8h21.015c9.194,0,16.679,6.516,16.679,14.591V421.986c0,8-7.464,14.611-16.679,14.631l-140.29.22c-9.194,0-16.679-6.516-16.679-14.591Z" transform="translate(39.343 -33.551)" fill="#fff"/>
      <path id="Trazado_216" data-name="Trazado 216" d="M269.607,118.724V420.535c0,8,7.464,14.591,16.679,14.591l140.29-.22c9.194,0,16.679-6.556,16.679-14.631V118.424c0-8-7.464-14.611-16.679-14.591H405.56v1.8a10.1,10.1,0,0,1-10.654,9.354l-77.6.12a10.079,10.079,0,0,1-10.674-9.334v-1.8H286.286C277.112,104.113,269.607,110.649,269.607,118.724Z" transform="translate(42.35 -31.84)" fill="none" stroke="#707070" stroke-miterlimit="10" stroke-width="0.75"/>
      <path id="Trazado_217" data-name="Trazado 217" d="M443.222,118.45V420.261c0,7.995-7.464,14.631-16.679,14.631H286.253c-9.194,0-16.679-6.516-16.679-14.591V118.49c0-8,7.464-14.631,16.679-14.631h20.369v1.8a9.593,9.593,0,0,0,3.3,6.771,10.438,10.438,0,0,0,7.331,2.543l77.6-.1a10.1,10.1,0,0,0,10.674-9.374v-1.779h21.015C435.758,103.879,443.222,110.455,443.222,118.45Z" transform="translate(42.34 -31.866)" fill="#424242"/>
      <path id="Trazado_218" data-name="Trazado 218" d="M303.234,62.968l26.686-.04V60.849l-26.686.04Z" transform="translate(84.611 13.762)" fill="url(#linear-gradient-4)"/>
      <path id="Trazado_485" data-name="Trazado 485" d="M2.9,0A2.739,2.739,0,0,1,5.8,2.54,2.733,2.733,0,0,1,2.9,5.077,2.739,2.739,0,0,1,0,2.537,2.733,2.733,0,0,1,2.9,0Z" transform="translate(377.916 72.877) rotate(-0.56)" fill="url(#linear-gradient-5)"/>
      <rect id="Rectángulo_51" data-name="Rectángulo 51" width="16.429" height="174.991" rx="5.901" transform="translate(324.215 222.119)" fill="#424242"/>
      <rect id="Rectángulo_52" data-name="Rectángulo 52" width="168.581" height="228.677" rx="11.687" transform="translate(121.61 159.598)" fill="#424242"/>
      <rect id="Rectángulo_53" data-name="Rectángulo 53" width="168.581" height="228.677" rx="11.687" transform="translate(118.878 163.516)" fill="url(#linear-gradient-6)"/>
      <rect id="Rectángulo_54" data-name="Rectángulo 54" width="168.581" height="228.677" rx="11.687" transform="translate(112.937 169.992)" fill="#fff"/>
      <path id="Trazado_219" data-name="Trazado 219" d="M282.585,263.494V380.122c-.011,7.918-6.71,14.331-14.969,14.331H128.953c-8.256,0-14.948-6.416-14.948-14.331V319C226.9,343.025,282.585,263.494,282.585,263.494Z" transform="translate(-1.068 4.276)" fill="url(#linear-gradient-7)"/>
      <path id="Trazado_220" data-name="Trazado 220" d="M221.079,240.548V426.732h-17.7V240.548a9.218,9.218,0,0,1,.271-2.119h0a9.614,9.614,0,0,1,.813-2l.292-.52,7.485-13.592,7.776,14.111a9.256,9.256,0,0,1,.792,2A8.2,8.2,0,0,1,221.079,240.548Z" transform="translate(23.87 -5.038)" fill="#424242"/>
      <path id="Trazado_221" data-name="Trazado 221" d="M221.079,240.548V426.732h-17.7V240.548a9.218,9.218,0,0,1,.271-2.119h0a9.614,9.614,0,0,1,.813-2l.292-.52,7.485-13.592,7.776,14.111a9.256,9.256,0,0,1,.792,2A8.2,8.2,0,0,1,221.079,240.548Z" transform="translate(23.87 -5.038)" fill="url(#linear-gradient-8)"/>
      <path id="Trazado_222" data-name="Trazado 222" d="M210.415,277.047V235.393H219V423.775h-8.59V278.126a2.426,2.426,0,0,1,.959-2.5,5.873,5.873,0,0,1,3.252-1.4,6.5,6.5,0,0,0,2.418-.42,3.067,3.067,0,0,0,1.313-2,7.688,7.688,0,0,0,.334-2.159.7.7,0,0,0-.188-.64.9.9,0,0,0-.459-.16,6.743,6.743,0,0,0-3.211.36,10.409,10.409,0,0,1-2.293.819,2.945,2.945,0,0,1-2.773-1.239" transform="translate(25.653 -2.081)" fill="#424242"/>
      <path id="Trazado_223" data-name="Trazado 223" d="M220.749,238.43a15.456,15.456,0,0,1-17.158,0h0l1.1-2.518,7.485-13.592,7.776,14.111a9.257,9.257,0,0,1,.792,2Z" transform="translate(23.929 -5.038)" fill="#424242"/>
      <path id="Trazado_224" data-name="Trazado 224" d="M117.829,201.208a25.2,25.2,0,0,0-11.717,2.139,25.2,25.2,0,0,0,11.717,2.159v5.217c-8.736,0-17.534-2.279-17.534-7.355s8.8-7.355,17.534-7.355Z" transform="translate(-4.893 -10.989)" fill="#424242"/>
      <path id="Trazado_225" data-name="Trazado 225" d="M131.5,202.465c0,5.077-8.777,7.355-17.492,7.355v-5.2c6.943,0,11.237-1.559,12.092-2.438a2.681,2.681,0,0,1,2.846-2.273,2.649,2.649,0,0,1,2.554,2.573Z" transform="translate(-1.068 -10.107)" fill="#424242"/>
      <path id="Trazado_226" data-name="Trazado 226" d="M117.829,225.483a25.2,25.2,0,0,0-11.717,2.139,25.2,25.2,0,0,0,11.717,2.139v5.217c-8.736,0-17.534-2.279-17.534-7.355s8.8-7.355,17.534-7.355Z" transform="translate(-4.893 -5.502)" fill="#424242"/>
      <path id="Trazado_227" data-name="Trazado 227" d="M131.5,226.74c0,5.077-8.777,7.355-17.492,7.355v-5.217c6.943,0,11.237-1.559,12.092-2.439a2.681,2.681,0,0,1,2.846-2.273,2.649,2.649,0,0,1,2.554,2.573Z" transform="translate(-1.068 -4.621)" fill="#424242"/>
      <path id="Trazado_228" data-name="Trazado 228" d="M117.829,249.741a25.109,25.109,0,0,0-11.717,2.159,25.2,25.2,0,0,0,11.717,2.139v5.217c-8.736,0-17.534-2.279-17.534-7.355s8.8-7.4,17.534-7.4Z" transform="translate(-4.893 -0.019)" fill="#424242"/>
      <path id="Trazado_229" data-name="Trazado 229" d="M131.5,251.011c0,5.077-8.777,7.355-17.492,7.355V253.15c6.943,0,11.237-1.559,12.092-2.438a2.681,2.681,0,0,1,2.846-2.273,2.649,2.649,0,0,1,2.554,2.573Z" transform="translate(-1.068 0.869)" fill="#424242"/>
      <path id="Trazado_230" data-name="Trazado 230" d="M117.829,274.005a25.11,25.11,0,0,0-11.717,2.159,25.2,25.2,0,0,0,11.717,2.139v5.217c-8.736,0-17.534-2.279-17.534-7.355s8.8-7.355,17.534-7.355Z" transform="translate(-4.893 5.478)" fill="#424242"/>
      <path id="Trazado_231" data-name="Trazado 231" d="M131.5,275.282c0,5.077-8.777,7.355-17.492,7.355v-5.217c6.943,0,11.237-1.559,12.092-2.439a2.681,2.681,0,0,1,2.846-2.273,2.649,2.649,0,0,1,2.554,2.573Z" transform="translate(-1.068 6.36)" fill="#424242"/>
      <path id="Trazado_232" data-name="Trazado 232" d="M117.829,298.28a25.11,25.11,0,0,0-11.717,2.159,25.48,25.48,0,0,0,11.717,2.139v5.217c-8.736,0-17.534-2.279-17.534-7.355s8.8-7.375,17.534-7.375Z" transform="translate(-4.893 10.965)" fill="#424242"/>
      <path id="Trazado_233" data-name="Trazado 233" d="M131.5,299.557c0,5.077-8.777,7.355-17.492,7.355V301.7c6.943,0,11.237-1.559,12.092-2.458a2.682,2.682,0,0,1,2.857-2.272,2.648,2.648,0,0,1,2.543,2.592Z" transform="translate(-1.068 11.846)" fill="#424242"/>
      <path id="Trazado_234" data-name="Trazado 234" d="M117.829,322.551a25.109,25.109,0,0,0-11.717,2.159,25.479,25.479,0,0,0,11.717,2.139v5.217c-8.736,0-17.534-2.279-17.534-7.355s8.8-7.375,17.534-7.375Z" transform="translate(-4.893 16.455)" fill="#424242"/>
      <path id="Trazado_235" data-name="Trazado 235" d="M131.5,323.828c0,5.077-8.777,7.355-17.492,7.355v-5.217c6.943,0,11.237-1.559,12.092-2.458a2.682,2.682,0,0,1,2.857-2.272,2.648,2.648,0,0,1,2.543,2.592Z" transform="translate(-1.068 17.337)" fill="#424242"/>
      <path id="Trazado_236" data-name="Trazado 236" d="M117.829,346.822a25.109,25.109,0,0,0-11.717,2.159,25.48,25.48,0,0,0,11.717,2.139v5.217c-8.736,0-17.534-2.279-17.534-7.355s8.8-7.375,17.534-7.375Z" transform="translate(-4.893 21.945)" fill="#424242"/>
      <path id="Trazado_237" data-name="Trazado 237" d="M131.5,348.1c0,5.077-8.777,7.355-17.492,7.355v-5.217c6.943,0,11.237-1.559,12.092-2.458a2.682,2.682,0,0,1,2.857-2.272A2.648,2.648,0,0,1,131.5,348.1Z" transform="translate(-1.068 22.827)" fill="#424242"/>
      <path id="Trazado_238" data-name="Trazado 238" d="M185.5,358.134a86.882,86.882,0,0,1-9.9,12.532,193.873,193.873,0,0,1-18.138,15.99c-3.148,2.6-6.255,5.217-9.3,8-2.5,2.279-5.692,3.838-6.255,7.355-.375,2,0,4.6-1.647,6a4.145,4.145,0,0,1-4.4.3,9.28,9.28,0,0,1-3.273-3.138,4.956,4.956,0,0,1-.792-1.539,3.665,3.665,0,0,1,0-1.839c.667-2.918,3.023-5.117,5.066-7.355a49.965,49.965,0,0,0,4.983-6.4,35.5,35.5,0,0,1,4.17-4.857l12.05-13.012c4.316-4.657,8.756-9.514,10.716-15.45a23.612,23.612,0,0,1,2.648-6.776c3.086-4.317,10.278-4.957,15.011-2.918C192.2,347.6,187.817,354.6,185.5,358.134Z" transform="translate(3.864 22.466)" fill="#ffbbab"/>
      <path id="Trazado_239" data-name="Trazado 239" d="M154.553,349.334s-3.127,26.144,0,40.275a107.7,107.7,0,0,1,2.439,26.484c-1.022,1.359,0,3.378,1.459,4.3a10.2,10.2,0,0,0,5.087,1.059l7.172.24a3.012,3.012,0,0,0,2.377-.58c.938-.979,0-2.618-1.251-3.2s-2.731-.62-3.9-1.3c-2.252-1.3-2.544-4.237-2.585-6.756l-.188-10.953c-.271-15.75-.521-31.58,2.085-47.131a5.293,5.293,0,0,0,0-2.139,5.393,5.393,0,0,0-2.877-2.778,12.318,12.318,0,0,0-4.316-1.719,4.119,4.119,0,0,0-4.065,1.679" transform="translate(9.859 22.731)" fill="#ffbbab"/>
      <path id="Trazado_240" data-name="Trazado 240" d="M185.645,272.5l4.024,2.119c1.939,1.019,4.17,2.9,6.255,2.159,3.482-1.3,7.047-4.617,10.112-6.7s6.63-4.6,9.924-6.956a8.067,8.067,0,0,0,2.231-2c.98-1.559,1-3.858,2.71-4.657l.959,4,5.275-2.678a3.766,3.766,0,0,1,2.085-.56c1.418.24,2.085,1.9,1.9,3.278-.417,4.617-5.358,6.1-9.278,7.256a15.009,15.009,0,0,0-3.065,1.059,11.417,11.417,0,0,0-2.085,1.5,57.456,57.456,0,0,0-9.632,9.394,46.926,46.926,0,0,1-4.17,4.937,12.772,12.772,0,0,1-4.608,4,8.467,8.467,0,0,1-4.357.16c-5.233-.939-10.07-4.357-14.177-7.455-.459-.34-.959-.879-.667-1.359a1.379,1.379,0,0,1,.667-.44,10.015,10.015,0,0,0,4.17-2.718,5.083,5.083,0,0,0,1.73-4.337Z" transform="translate(17.065 2.687)" fill="#ffbbab"/>
      <path id="Trazado_241" data-name="Trazado 241" d="M179.858,252.613a5.175,5.175,0,0,1-3.774,2.5,1.921,1.921,0,0,0-1.168.24,1.355,1.355,0,0,0-.271,1.179l.417,5.157a1.809,1.809,0,0,1-.167,1.2,2.108,2.108,0,0,1-1.293.7c-1.96.52-4.357.919-5.733-.5a5.286,5.286,0,0,1-1.126-2.838,54.012,54.012,0,0,1-1.084-17.809,12.43,12.43,0,0,1,5.275-9.174c3.732-2.159,13.281-2.818,12.884,3.178a64.582,64.582,0,0,0-.813,7.235A14.087,14.087,0,0,1,179.858,252.613Z" transform="translate(13.262 -2.911)" fill="#ffbbab"/>
      <path id="Trazado_242" data-name="Trazado 242" d="M187.013,233.06a4.553,4.553,0,0,1,0,3.238,4.345,4.345,0,0,1-2.815,1.839c-2.815.74-5.838.54-8.59,1.379a2.549,2.549,0,0,0-1.188.66,2.444,2.444,0,0,0-.4,1.259,52.017,52.017,0,0,0,.5,15.67,27.307,27.307,0,0,1-15.511-.18,3.852,3.852,0,0,1-3.169-3.178,26.608,26.608,0,0,1,2.752-22.126,11.53,11.53,0,0,1,9.715-6C175.109,224.685,185.241,225.345,187.013,233.06Z" transform="translate(10.256 -4.365)" fill="#fc682d"/>
      <path id="Trazado_243" data-name="Trazado 243" d="M184.513,311.08c-.417,12.772,4.441,24.785,8.068,37.077,1.605,5.337,3.377,10.833,2.773,16.35a3.1,3.1,0,0,1,0,.44c-17.575,4.857-36.839,7.275-53.852.8A134.471,134.471,0,0,0,144.38,339.6a45.264,45.264,0,0,1,.73-10.354c1.376-5.816,5.3-10.753,9.382-15.25a15.956,15.956,0,0,0,3.794-5.5,14.694,14.694,0,0,0,.25-6,115.113,115.113,0,0,1-.5-19.868,46.408,46.408,0,0,1,4.712-17.309,23.152,23.152,0,0,1,4.691-6.7,12.407,12.407,0,0,1,7.443-3.478,8.184,8.184,0,0,1,7.318,3.258c4.274,6.316,11.4,7.735,16.679,13.412a1.8,1.8,0,0,1,.6,1.019,1.834,1.834,0,0,1-.459,1.179c-1.814,2.778-3.648,5.557-5.462,8.355a18.754,18.754,0,0,1-1.918,2.5h0c-.646.64-1.439,1.159-2.085,1.8a13.042,13.042,0,0,0-3,7,108.36,108.36,0,0,0-2.043,17.409Z" transform="translate(6.605 2.383)" fill="#424242"/>
      <path id="Trazado_244" data-name="Trazado 244" d="M175.38,405.358l-1.772-.54a17.617,17.617,0,0,0-4.4-.939,1.6,1.6,0,0,0-.751.12,1.618,1.618,0,0,0-.667.76A3.591,3.591,0,0,1,166.749,406a3.988,3.988,0,0,1-3,0,13.29,13.29,0,0,1-3-1.039c-.938-.5-1.73-1.219-2.689-1.659a2.165,2.165,0,0,0-1.751-.12,2.048,2.048,0,0,0-.688.64,2.908,2.908,0,0,0-.876,2.958,2.811,2.811,0,0,0,.4,1.3,3.013,3.013,0,0,0,2.252.8l8.673.52c2.71.16,5.421.32,8.152.28a18.407,18.407,0,0,0,4.441-.46.522.522,0,0,0,.5-.32.538.538,0,0,0,0-.4,7.5,7.5,0,0,0-4.67-3.358" transform="translate(10.276 35.844)" fill="#424242"/>
      <path id="Trazado_245" data-name="Trazado 245" d="M133.376,389.384c.229.819,0,1.739.208,2.558a5.146,5.146,0,0,0,1.042,1.759l2.085,2.478a3.194,3.194,0,0,0,.855.8,3.684,3.684,0,0,0,2.835-.1.909.909,0,0,1,.792,0,.872.872,0,0,1,.271.46l1.209,4a19.647,19.647,0,0,1,.813,5.157,1.536,1.536,0,0,1-.646.48c-1.918.939-5.212-3.238-6.859-4.577a13.939,13.939,0,0,1-3.482-5.2c-.479-1.019-.917-2-1.334-3.078a9.694,9.694,0,0,1-.959-3,1.532,1.532,0,0,1,.876-1.4C131.645,389.5,133.126,388.484,133.376,389.384Z" transform="translate(3.453 32.671)" fill="#424242"/>
      <path id="Trazado_246" data-name="Trazado 246" d="M181.814,183.624h7.109l-3.544-6.456Z" transform="translate(50.731 40.074)" fill="url(#linear-gradient-9)"/>
      <path id="Trazado_247" data-name="Trazado 247" d="M188.771,360.422a9.609,9.609,0,0,1-7.714-.74c-4.024-2.418-5.629-7.235-6.255-11.733-1.605-9.854-.646-20.527-6.067-29.042-1.647-2.578-3.94-5.2-3.607-8.235s3.44-5.3,5.212-8a21.27,21.27,0,0,0,2.648-9.994c.6-6.5,1.209-13.012,1.835-19.508,0,1.639,7.505,5.137,10.237,7.655-.646.64-1.439,1.159-2.085,1.8a13.042,13.042,0,0,0-3,7,108.344,108.344,0,0,0-1.939,17.389c-.417,12.772,4.441,24.785,8.068,37.077C187.6,349.409,189.376,354.906,188.771,360.422Z" transform="translate(13.188 6.466)" fill="url(#linear-gradient-10)"/>
      <path id="Trazado_248" data-name="Trazado 248" d="M387.457,387.242h-44.3l-7.172-72.255,17.367.56,34.108,1.079S388.082,349.146,387.457,387.242Z" transform="translate(60.87 15.924)" fill="#473f47"/>
      <path id="Trazado_249" data-name="Trazado 249" d="M361.149,312.523l-.542,5.457-7.193,71.675H310.028c-.667-53.966,4.649-85.067,4.649-85.067Z" transform="translate(53.612 13.572)" fill="#473f47"/>
      <path id="Trazado_250" data-name="Trazado 250" d="M290.031,268.751c.271,4.757,1.876,8.934,6.255,10.294a5.9,5.9,0,0,0,1.1.3c7.943,1.519,18.368-4.277,25.644-9.334a101.955,101.955,0,0,0,8.673-6.776V212.246l-38.653,37.976A56.333,56.333,0,0,0,290.031,268.751Z" transform="translate(48.048 -7.316)" fill="#fff"/>
      <path id="Trazado_251" data-name="Trazado 251" d="M316.18,272.029c0,2.378-.313,4.8-.313,7.2,0,13.172,3.19,26.763-.917,39.675-.917,2.878-2.21,6-1.147,8.815a11.249,11.249,0,0,0,5.754,5.3c12.113,6.356,26.1,8.295,39.779,10.134,10.278,1.379,24.851,4.317,34.358-1,4.045-2.259,5.421-6.476,6.713-10.673,4.17-13.352,5.316-27.723,6.4-41.554.146-1.819.271-3.658.4-5.477q1.188-18.928.792-37.856c-.188-9.154-.938-19.048-7.172-25.984-8.339-9.214-24.351-15.31-36.527-17.449a43.308,43.308,0,0,0-12.009-.64,52.263,52.263,0,0,0-16.262,5.3c-6.046,2.858-11.425,5.277-14.406,11.013a76.556,76.556,0,0,0-6.692,20.967,72.673,72.673,0,0,0-.375,20.507c.354,3.338,1.272,6.656,1.605,9.994C316.138,270.869,316.18,271.469,316.18,272.029Z" transform="translate(54.57 -9.555)" fill="#fff"/>
      <path id="Trazado_252" data-name="Trazado 252" d="M360.5,343.222c3.982,1.119,13.176-2.378,16.241-2.9,1.814-.3,3.482-1.179,5.3-1.6,9.09-2.179,10.174-26.683,11.071-33.279,2.356-17.429,5.983-35.478,6.255-52.967a56.2,56.2,0,0,0-2.418-19.988c-2.293-6.356-7.026-12.232-13.635-14.531-11.633-4-15.073,31.22-16.679,38.536l-8.736,39.855a86.248,86.248,0,0,0-2.377,14.891c-.313,6.976,2.085,11.993,3.878,18.149,1.063,3.478-1.855,10.114-.417,12.692a2.53,2.53,0,0,0,1.522,1.139Z" transform="translate(66.313 -6.095)" fill="#020202" opacity="0.1"/>
      <path id="Trazado_253" data-name="Trazado 253" d="M337.983,200.823a9,9,0,0,0,5.608,2.7,30.439,30.439,0,0,0,5.4,0h1a1.058,1.058,0,0,1,.751.14,1.017,1.017,0,0,1,.313.76,55.585,55.585,0,0,1,.209,10.374h0a18.653,18.653,0,0,1-.167,1.859,3.477,3.477,0,0,0,.167,2,3.558,3.558,0,0,0,2.189,1.379,16.941,16.941,0,0,0,4.879.8,22.4,22.4,0,0,0,9.945-3.358,93.006,93.006,0,0,1,.98-17.689c1.147-7.555,3.211-15.111,2.356-22.706a12.207,12.207,0,0,0-4.553-9.449,13.343,13.343,0,0,0-10.458-2.8,30.62,30.62,0,0,0-16.116,4.217,5.914,5.914,0,0,0-2.377,4.577c-.625,2.978-1.126,6-1.459,8.994-.4,3.458-.6,6.916-.667,10.374a11.378,11.378,0,0,0,2,7.835Z" transform="translate(60.849 -18.079)" fill="#fdbaac"/>
      <path id="Trazado_254" data-name="Trazado 254" d="M345.219,173.82c4.024.64,8.339,0,12.259,1.459,5.337,2,7.61,8.735,5.817,13.991,1.543.54,1.835-2.119,3.023-3.2s3.878.36,4.17,2.219a10.908,10.908,0,0,1-1.71,5.257,15.087,15.087,0,0,0-.709,10.334c.25.8.855,1.759,1.71,1.539s1.439-1.579,1.939-2.179a21.645,21.645,0,0,1,2.523-2.638c1.9-1.579,3.94-2.958,5.858-4.5,3.419-2.738,6.588-6.456,6.38-10.713a9.2,9.2,0,0,0-1.751-4.837,11.122,11.122,0,0,0-3.315-3.078c-.542-.34-1.168-.68-1.272-1.3a2.4,2.4,0,0,1,.125-1,11.441,11.441,0,0,0-4.983-11.553,30.231,30.231,0,0,0-12.947-4.6c-2.981-.52-5.963-.919-8.965-1.259a20.8,20.8,0,0,1-7.193-1.619,18.975,18.975,0,0,1,2.377-4.517,23.409,23.409,0,0,0-6.025,2.658,8.763,8.763,0,0,1,.813-2.878,18.509,18.509,0,0,0-8.861,4.857,9.829,9.829,0,0,0-.313,11.493c2.314,3.5,5.963,4.9,9.966,5.816Z" transform="translate(59.889 -21.077)" fill="#f86938"/>
      <path id="Trazado_255" data-name="Trazado 255" d="M346.137,197.057h1a1.058,1.058,0,0,1,.751.14,1.017,1.017,0,0,1,.313.76,55.585,55.585,0,0,1,.209,10.374h0s10.424-2.518,9.986-14.731a63.123,63.123,0,0,1-12.2,3.478Z" transform="translate(63.703 -11.535)" fill="#dea095"/>
      <path id="Trazado_256" data-name="Trazado 256" d="M284.447,231.643a69.987,69.987,0,0,0,2.4,25.044,35.164,35.164,0,0,0,9.361,15.35,6.825,6.825,0,0,0,6.109,1.639,19.594,19.594,0,0,0,10.424-5.357c7.109-7.535,2.272-19.128,2.272-19.128s-14.719-22.206-17.992-23.106c-1.772-.52-5.358,1.2-8.339,2.858C286.407,230.3,284.447,231.643,284.447,231.643Z" transform="translate(46.419 -4.207)" fill="#fff"/>
      <path id="Trazado_257" data-name="Trazado 257" d="M285.827,247.2a187.2,187.2,0,0,0,4.462,19.108,15.993,15.993,0,0,0,2.752,5.876c3.69,4.337,10.424,4,15.428,2.479,1.626-.5,16.887-7,16.262-8.495v-.16l-2.46-15.251c.208,1.239-6.4,5.557-7.276,6.2-4.17,3.058-10.3,7.995-15.219,3.3a16.249,16.249,0,0,1-3.565-6.176,135.207,135.207,0,0,1-6.984-24.625,3.923,3.923,0,0,0-2.941.091,3.678,3.678,0,0,0-1.979,2.088,10.078,10.078,0,0,0-.146,5.776C284.659,240.688,285.222,243.966,285.827,247.2Z" transform="translate(46.311 -3.479)" fill="#020202" opacity="0.1"/>
      <path id="Trazado_258" data-name="Trazado 258" d="M410.479,271.21c3.44,8.954,6.484,18.448,5.066,27.883-1.689,11.453-9.632,21.027-17.283,29.981-6,.859-13.885.74-16.012-4.717a12.458,12.458,0,0,1-.417-5.417l.855-11.813a42.489,42.489,0,0,0-.834-15.75c-1.814-5.776-5.983-10.533-9.278-15.67a59.117,59.117,0,0,1-9.3-27.6c-.688-9.194,6.546-38.856,20.682-29.981,5.858,3.678,11.05,18.928,14.135,25.064A288.88,288.88,0,0,1,410.479,271.21Z" transform="translate(68.474 -6.357)" fill="#fff"/>
      <path id="Trazado_259" data-name="Trazado 259" d="M375.452,316.832a2.621,2.621,0,0,0-.5,1.539.93.93,0,0,0,1.209.8c1.439,4.237-1.564,8.675-1.564,13.152a3.25,3.25,0,0,0,.188,1.179,2.645,2.645,0,0,0,1.022,1.2,5.71,5.71,0,0,0,5.275.32,13.519,13.519,0,0,0,4.4-3.158,21.631,21.631,0,0,0,5.963-8.575,25.36,25.36,0,0,0,.855-4.677l1.439-11.653C384.6,304.1,379.685,309.9,375.452,316.832Z" transform="translate(71.644 13.939)" fill="#fdbaac"/>
      <path id="Trazado_260" data-name="Trazado 260" d="M301.936,220.6a4.348,4.348,0,0,0,.354-2.4,1.619,1.619,0,0,0-1.835-1.279c-.5.12-.834.54-1.272.779a3,3,0,0,1-3.273-.4,8.369,8.369,0,0,1-2.085-2.7,83.635,83.635,0,0,0-5.4-7.995,3.667,3.667,0,0,0-1.73-1.459,3.433,3.433,0,0,0-2.523.46,11.91,11.91,0,0,0-5.942,9.814,18.32,18.32,0,0,0,3.5,11.153,49.22,49.22,0,0,0,8.194,8.854,5.373,5.373,0,0,0,2.627,1.579C298.35,237.932,300.851,223.8,301.936,220.6Z" transform="translate(44.755 -8.937)" fill="#fdbaac"/>
      <rect id="Rectángulo_55" data-name="Rectángulo 55" width="61.503" height="51.948" transform="translate(322.965 105.392)" fill="#fff" opacity="0.41"/>
    </g>
  </g>
</svg>
