<svg xmlns="http://www.w3.org/2000/svg" xmlns:xlink="http://www.w3.org/1999/xlink" width="281" height="167" viewBox="0 0 281 167">
  <defs>
    <clipPath id="clip-path">
      <rect id="Rectángulo_25" data-name="Rectángulo 25" width="281" height="167" transform="translate(0 -0.25)" fill="#fff" stroke="#707070" stroke-width="1"/>
    </clipPath>
  </defs>
  <g id="Enmascarar_grupo_2" data-name="Enmascarar grupo 2" transform="translate(0 0.25)" clip-path="url(#clip-path)">
    <path id="icons8-postgresql" d="M126.711,7.261a45.534,45.534,0,0,0-18.251,3.971c-4.354-1.461-11.572-3.957-20.237-2.156a32.239,32.239,0,0,0-13.941,6.155,56.119,56.119,0,0,0-22-5.786C47.565,9.076,28.32,11.26,21.414,21.414a42.059,42.059,0,0,0-6.169,15.245c-1.092,5.446-1.092,11.629.723,24.335,1.092,8.707,2.553,14.522,5.814,26.491.369,1.092,2.184,6.906,7.63,22.888a43.843,43.843,0,0,0,7.615,13.416c2.907,3.63,5.815,5.814,9.445,5.814,4.722,0,7.984-3.262,10.891-6.892.213-.241.44-.51.652-.752a4.836,4.836,0,0,0-.652,1.475c-.723,3.63,3.63,6.538,7.261,7.984a19.858,19.858,0,0,0,8.707,1.815,28.289,28.289,0,0,0,7.261-1.078,32.443,32.443,0,0,0,6.821-3.5c.128,9.275.213,20.223.44,22.733,1.092,9.445,3.63,15.968,8.353,19.6,3.63,2.907,10.168,3.276,10.537,3.276,6.524,0,16.692-4.354,21.045-11.246,2.184-3.276,2.907-6.183,3.63-10.182.723-2.17,1.447-14.876,1.815-17.415.5-4.013.879-7.97,1.262-11.813a33.805,33.805,0,0,0,8.551,1.29c5.8,0,13.43-4,14.876-4.736,2.907-2.17,8.707-7.247,6.169-11.6-1.446-2.553-3.63-2.553-9.076-1.815,0,0-8.707,1.078-9.445.709a11.351,11.351,0,0,1-2.241-1.376c1.886-2.921,3.559-5.814,5.516-8.41A153.1,153.1,0,0,0,157.569,77.7a162.974,162.974,0,0,0,6.155-21.428C166.277,45.38,167,40.3,165.539,34.489c-2.893-10.168-13.43-18.875-17.784-21.414C144.849,11.615,137.6,7.261,126.711,7.261Zm0,7.261c9.076,0,15.245,3.63,18.507,5.077,4,2.184,13.075,9.445,13.8,16.337.368,4,.723,8-1.815,18.521-1.447,5.077-2.907,11.614-6.183,20.691a108.65,108.65,0,0,1-8.339,18.89c-.114.184-.241.383-.355.582.425-1.532.723-2.765.723-2.765a35.619,35.619,0,0,0,.355-10.891,87.815,87.815,0,0,1-.723-9.813c0-1.078,1.078-12.338,1.446-16.337.369-6.524-3.63-14.522-4.708-15.968-5.446-8.353-8.353-13.061-14.167-17.783a57.013,57.013,0,0,0-7.3-5.361A36.768,36.768,0,0,1,126.711,14.522ZM94.632,16.011a36.3,36.3,0,0,1,11.742,2.51A42.954,42.954,0,0,1,120.9,26.86c4.722,4,7.261,8,12.707,16.351a33.008,33.008,0,0,1,2.255,4.836c-7.431-.681-12.366,1.928-15.33,4.595-4.354,3.63-4,9.076-3.63,13.061,0,2.907.737,6.551,6.183,18.89,2.17,5.446,4.34,11.246,6.524,15.245a34.7,34.7,0,0,0,4.013,6.169,10.161,10.161,0,0,0-2.567,1.815c-2.17,2.538-2.539,5.091-3.262,9.813a164.238,164.238,0,0,0-1.815,17.415c0,2.538-1.078,14.891-1.446,16.706-1.092,3.63-1.461,5.446-2.907,7.629-2.538,3.985-10.522,7.261-15.245,6.892a8.291,8.291,0,0,1-5.446-1.447c-4-2.907-5.446-9.445-5.815-14.522-.368-3.63,0-29.781-.723-35.595-.369-1.447-.723-5.077-3.63-7.616-1.219-1.021-3.744-1.546-6.126-1.9a17.926,17.926,0,0,1,2.141-8.636c.355-1.078,1.078-2.525,1.815-4.34,3.262-10.168,2.525-23.612.709-31.965-.355-.724-1.815-6.524-6.892-9.785-5.446-3.276-11.26-1.461-14.522-.368a21.272,21.272,0,0,0-4.013,1.631c.227-1.518.425-3.049.751-4.538,1.446-7.261,2.907-13.43,7.629-19.6,5.077-6.183,10.877-10.168,17.415-11.26A27.43,27.43,0,0,1,94.632,16.011Zm-44.827.638a18.583,18.583,0,0,1,2.113.057,48.637,48.637,0,0,1,16.493,3.9c-.667.737-1.333,1.475-1.971,2.269-6.169,7.261-7.63,14.876-9.076,22.506a80.293,80.293,0,0,0-.737,27.951l-.709,6.892c-.368,3.63-1.106,10.537,2.893,17.8a31.417,31.417,0,0,0,4.652,6.2c-3.687,4.879-7.6,9.487-11.544,13.77-2.184,2.538-4,4.354-5.446,4.354-.369,0-1.815-.723-4-3.262A31.275,31.275,0,0,1,36.3,108.19c-4.354-13.075-6.892-21.428-7.261-22.52C26.136,74.055,24.69,68.255,23.229,59.9c-1.815-11.614-1.815-17.429-.723-22.137a37.277,37.277,0,0,1,4.722-11.983C31.681,18.79,43.906,16.8,49.805,16.649Zm83.3,38.261a18.177,18.177,0,0,1,3.758.425c-.042,3.389-1.446,14.025-1.446,15.458,0,2.907.723,8.707.723,10.891a37.058,37.058,0,0,1,0,9.076s-.539,2.6-1.092,4.439c-1.687-3.815-3.559-8.367-5.814-13.515-5.446-12.338-5.8-14.876-5.8-16.692,0-2.553,0-5.814,2.17-7.261A11.066,11.066,0,0,1,133.107,54.91ZM76.75,55.974a5.4,5.4,0,0,1,2.028.652c2.907,1.461,3.63,5.091,3.63,5.091,1.815,7.984,2.538,19.967-.368,27.951a35.132,35.132,0,0,1-1.447,3.63,40.384,40.384,0,0,0-2.184,6.892A38.485,38.485,0,0,0,78.1,104.2a19.388,19.388,0,0,1-6.58-2.553,14.958,14.958,0,0,1-6.524-6.906A23.813,23.813,0,0,1,63.178,81.33l.709-8.367a88.792,88.792,0,0,1-.695-12.253,17.4,17.4,0,0,1,6.878-3.716C72.254,56.456,74.637,55.7,76.75,55.974Zm53.535,2.439a10.32,10.32,0,0,0-2.5.4c-1.446.369-1.815.369-2.184,1.092s.737,1.815,1.106,2.538c.355,0,1.447,1.092,2.893.737a5.631,5.631,0,0,0,2.184-1.461c.368-.369,1.815-2.184.723-2.907A3.289,3.289,0,0,0,130.284,58.413ZM75.927,61.051a3.022,3.022,0,0,0-1.149.312,1.948,1.948,0,0,0-1.447,1.078,1.583,1.583,0,0,0,.369,1.815,4.258,4.258,0,0,0,3.63,2.184,4.03,4.03,0,0,0,2.893-1.092,3.8,3.8,0,0,0,1.106-2.17,3.341,3.341,0,0,0-2.184-1.461A8.646,8.646,0,0,0,75.927,61.051Zm-6.68,47.508a31.624,31.624,0,0,0,7.842,2.822,10.793,10.793,0,0,1-3.021,3.7,25.165,25.165,0,0,1-9.076,3.63c-.737,0-1.092.369-1.815.369a9.972,9.972,0,0,0-4.623,2.255C62.115,117.379,65.688,113.011,69.248,108.558Zm70,2.907a17.181,17.181,0,0,0,4.51,2.538c2.184.724,4,.724,10.537,0-1.092,1.078-4.354,2.893-9.076,3.63a28.61,28.61,0,0,1-9.87-1.3c.284-2.056.61-3.234,1.149-3.787A25.912,25.912,0,0,1,139.247,111.466Zm-54.669,1.092a5.189,5.189,0,0,1,1.461.341,5.943,5.943,0,0,1,1.092,3.276c.042.624.071,2.2.1,3.29a22.686,22.686,0,0,1-8.821,5.786c-1.447.723-5.8,1.446-10.154,0,3.63-1.092,7.261-2.17,10.154-4.354A18.63,18.63,0,0,0,84.578,112.558Z" transform="translate(50.107 -8.22)" fill="#fff"/>
  </g>
</svg>
