<svg xmlns="http://www.w3.org/2000/svg" xmlns:xlink="http://www.w3.org/1999/xlink" width="571" height="385" viewBox="0 0 571 385">
  <defs>
    <clipPath id="clip-path">
      <rect id="Rectángulo_49" data-name="Rectángulo 49" width="571" height="385" transform="translate(121 3034)" fill="#fff" stroke="#707070" stroke-width="1"/>
    </clipPath>
    <linearGradient id="linear-gradient" x1="-57.316" y1="5.23" x2="-52.201" y2="-2.017" gradientUnits="objectBoundingBox">
      <stop offset="0.01"/>
      <stop offset="0.08" stop-opacity="0.69"/>
      <stop offset="0.21" stop-opacity="0.322"/>
      <stop offset="1" stop-opacity="0"/>
    </linearGradient>
    <linearGradient id="linear-gradient-2" x1="-49.394" y1="4.518" x2="-44.999" y2="-0.984" xlink:href="#linear-gradient"/>
    <linearGradient id="linear-gradient-3" x1="6.875" y1="-3.225" x2="12.71" y2="-3.646" gradientUnits="objectBoundingBox">
      <stop offset="0.01"/>
      <stop offset="0.13" stop-opacity="0.69"/>
      <stop offset="0.25" stop-opacity="0.322"/>
      <stop offset="1" stop-opacity="0"/>
    </linearGradient>
    <linearGradient id="linear-gradient-4" x1="0.774" y1="17.273" x2="1.099" y2="13.023" xlink:href="#linear-gradient"/>
  </defs>
  <g id="Enmascarar_grupo_7" data-name="Enmascarar grupo 7" transform="translate(-121 -3034)" clip-path="url(#clip-path)">
    <g id="user__interface_monochromatic" transform="translate(154.952 3033.984)">
      <path id="Trazado_170" data-name="Trazado 170" d="M102.1,389.363a194.179,194.179,0,0,0,20.5,4.332c38.68,6.1,78.306,2.562,117.169,7.26,41.151,4.942,81.112,19.126,122.6,8.907,33.25-8.206,62.809-29.163,84.437-55.366,30.322-36.606,46.886-82.79,59.515-128.669,14.154-51.34,21.811-113.02-14.551-151.914C462.727,42.8,415.505,37.887,372.982,39.534c-22.482.885-44.964,3.05-67.446,2.318s-39.87-8.114-60.582-12.2c-33.006-6.559-75.164,15.527-98.042,37.46C119.457,93.284,104.2,129.737,78.794,157.8c-17.083,18.821-38.863,34.135-50.424,56.769a124.367,124.367,0,0,0-10.86,38.192c-4.149,27.668-4.393,57.257,8.48,82.088C40.815,363.464,70.466,380.76,102.1,389.363Z" transform="translate(-14.978 -28.461)" fill="#424242" opacity="0.18"/>
      <path id="Trazado_171" data-name="Trazado 171" d="M374.751,80.746s95.724,42.524,99.018,101.733-175.4,48.533-214.479,74.066S50.851,320.88,54.115,276.4s43.5-59.82,43.5-59.82" transform="translate(-14.978 -28.461)" fill="none" stroke="#fff" stroke-miterlimit="10" stroke-width="1.464"/>
      <path id="Trazado_172" data-name="Trazado 172" d="M124.093,271.95,182.51,116.071a13.331,13.331,0,0,1,12.476-8.633h245.99a13.331,13.331,0,0,1,13.3,13.331,13.668,13.668,0,0,1-.61,4L397.141,301.692a13.27,13.27,0,0,1-13.788,9.151L135.411,289.8a13.331,13.331,0,0,1-12.2-14.368,13.849,13.849,0,0,1,.885-3.478Z" transform="translate(-14.978 -28.461)" fill="#424242" opacity="0.18"/>
      <path id="Trazado_173" data-name="Trazado 173" d="M447.078,109.177,390.461,286.2a13.361,13.361,0,0,1-13.819,9.151l-74.249-6.284L128.852,274.238a13.27,13.27,0,0,1-12.2-14.337,14.4,14.4,0,0,1,.854-3.661l13.88-36.606,25.105-67.11,19.462-51.858a13.331,13.331,0,0,1,12.476-8.633h245.99a13.3,13.3,0,0,1,13.3,13.3,12.935,12.935,0,0,1-.641,3.844Z" transform="translate(-14.978 -28.461)" fill="#fff"/>
      <path id="Trazado_174" data-name="Trazado 174" d="M188.4,234.734l18.15-49.814h75.53l-19.706,51.187Z" fill="#424242" opacity="0.18"/>
      <path id="Trazado_175" data-name="Trazado 175" d="M447.078,109.177,390.461,286.2a13.361,13.361,0,0,1-13.819,9.151l-74.249-6.284,68.483-185.9.519-1.434,76.079.793a6.328,6.328,0,0,0,0,.671A13.239,13.239,0,0,1,447.078,109.177Z" transform="translate(-14.978 -28.461)" fill="#424242"/>
      <path id="Trazado_176" data-name="Trazado 176" d="M206.639,123.209l-18.7,62.016a4.7,4.7,0,0,1-4.576,3.447L133.7,187.238l25.136-67.11,43.622-2.562a4.24,4.24,0,0,1,4.179,5.643Z" transform="translate(-14.978 -28.461)" fill="#424242" opacity="0.18"/>
      <path id="Trazado_177" data-name="Trazado 177" d="M92.826,169.973l19.34-54.756a4.728,4.728,0,0,1,4.118-3.2l81.509-4.82a4.3,4.3,0,0,1,4.21,5.674l-18.7,62.047a4.759,4.759,0,0,1-4.576,3.478l-82.18-2.471a4.3,4.3,0,0,1-3.722-5.948Z" transform="translate(-14.978 -28.461)" fill="#fff"/>
      <path id="Trazado_178" data-name="Trazado 178" d="M432.618,74.066V75.53L355.9,74.737,160.974,72.754V71.29l195.444,1.983,76.079.793Z" fill="#424242"/>
      <path id="Trazado_179" data-name="Trazado 179" d="M104.54,135.777H94.107L99.6,121.592H110Z" fill="#424242"/>
      <path id="Trazado_180" data-name="Trazado 180" d="M117.382,135.777H106.95l11.165-28.857h10.433Z" fill="#424242"/>
      <path id="Trazado_181" data-name="Trazado 181" d="M130.255,135.777H119.823l6.8-17.571h10.4Z" fill="#424242"/>
      <path id="Trazado_182" data-name="Trazado 182" d="M143.1,135.777H132.665l14.7-38.009H157.8Z" fill="#424242"/>
      <path id="Trazado_183" data-name="Trazado 183" d="M117.382,135.777H106.95l11.165-28.857h10.433Z" fill="url(#linear-gradient)"/>
      <path id="Trazado_184" data-name="Trazado 184" d="M143.1,135.777H132.665l14.7-38.009H157.8Z" fill="url(#linear-gradient-2)"/>
      <path id="Trazado_185" data-name="Trazado 185" d="M155.971,135.777H145.538l18.791-48.625h10.433Z" fill="#424242"/>
      <path id="Trazado_186" data-name="Trazado 186" d="M411.814,147.4a17.846,17.846,0,1,0-.366,1.19l.183-.58Z" transform="translate(-14.978 -28.461)" fill="#fff"/>
      <path id="Trazado_187" data-name="Trazado 187" d="M372.8,260.663a17.937,17.937,0,0,0-34.379-9.884v.58a.668.668,0,0,1-.214.58,17.906,17.906,0,0,0,33.555,12.2c.183-.58.336-1.159.519-1.739S372.585,261.243,372.8,260.663Z" transform="translate(-14.978 -28.461)" fill="#fff"/>
      <path id="Trazado_188" data-name="Trazado 188" d="M391.04,197.976a17.906,17.906,0,1,0-35.813,0v1.251a17.906,17.906,0,1,0,35.813,0Z" transform="translate(-14.978 -28.461)" fill="#fff"/>
      <path id="Trazado_189" data-name="Trazado 189" d="M394,142.488h0l4.21-13.514a14.855,14.855,0,0,0-3.661-.641,14.185,14.185,0,0,0-14.063,9.914,14.858,14.858,0,0,0-.641,3.661,15.254,15.254,0,0,0,.336,3.691,14.19,14.19,0,0,0,16.93,10.677,15.559,15.559,0,0,0,3.447-1.251,15.008,15.008,0,0,0,3.05-2.135,14.368,14.368,0,0,0,3.9-6.1Z" transform="translate(-14.978 -28.461)" fill="#424242"/>
      <path id="Trazado_190" data-name="Trazado 190" d="M373.378,198.555h0V184.4a14.276,14.276,0,0,0-7.047,1.922,13.33,13.33,0,0,0-3.05,2.257,14.093,14.093,0,0,0,6.375,23.641,13.575,13.575,0,0,0,7.321,0,14.307,14.307,0,0,0,3.417-1.373Z" transform="translate(-14.978 -28.461)" fill="#424242"/>
      <path id="Trazado_191" data-name="Trazado 191" d="M355.289,256.881l4.393-13.453a14.551,14.551,0,0,0-7.321-.4,14.154,14.154,0,0,0-11.2,13.117,13.423,13.423,0,0,0,.305,3.661,13.848,13.848,0,0,0,1.22,3.478,14.032,14.032,0,0,0,8.114,7.047L355.2,256.85Z" transform="translate(-14.978 -28.461)" fill="#424242"/>
      <path id="Trazado_192" data-name="Trazado 192" d="M175.738,202.948a2.806,2.806,0,0,1-.946,1.464,4.514,4.514,0,0,1-2.166.58,4.728,4.728,0,0,0-2.257.763,1.281,1.281,0,0,0,0,1.159l.885,4.942a1.983,1.983,0,0,1,0,1.19,1.708,1.708,0,0,1-1.129.793c-1.769.7-3.966,1.312-5.369,0a5.46,5.46,0,0,1-1.312-2.654A54.238,54.238,0,0,1,160.7,194.01a12.2,12.2,0,0,1,4.027-9.4,11.9,11.9,0,0,1,8.694-2.013,4.21,4.21,0,0,1,3.234,2.227c.4.885,0,1.739,0,2.684a26.691,26.691,0,0,0,.275,4.149,19.068,19.068,0,0,0,.488,1.891,6.375,6.375,0,0,1,.488,1.647,6.772,6.772,0,0,1-.885,3.05,19.006,19.006,0,0,0-1.129,3.447A6.4,6.4,0,0,1,175.738,202.948Z" transform="translate(-14.978 -28.461)" fill="#fdb9a9"/>
      <path id="Trazado_193" data-name="Trazado 193" d="M179.7,239.554s6.1,6.528,11.226,6.528,27.729-21.353,27.729-21.353a9.975,9.975,0,0,0,5.186-5.857c.214-.885.153-1.8.305-2.684a11.9,11.9,0,0,1,2.349-4.881,1.83,1.83,0,0,0,.519-1.495c-.183-.671-.976-.885-1.647-1.007a8.938,8.938,0,0,0-6.375.519,8.084,8.084,0,0,0-2.776,4.515,5.46,5.46,0,0,0-2.44-1.952,1.464,1.464,0,0,0-.641,1.769,17.571,17.571,0,0,0,.793,1.891,6.1,6.1,0,0,1-2.562,6.1,27.244,27.244,0,0,1-3.752,2.44l-13.849,8.084c-1.4.824-3.05,1.678-4.576.915-.7-.366-1.19-1.068-1.952-1.4a3.477,3.477,0,0,0-3.295,1.037,20.743,20.743,0,0,0-4.24,6.833Z" transform="translate(-14.978 -28.461)" fill="#fdb9a9"/>
      <path id="Trazado_194" data-name="Trazado 194" d="M124.52,329.909a12.812,12.812,0,0,1-5.643,9.151c-5.674,2.654-12.965,3.325-19.065,4.637-3.691.824-7.382,1.647-11.012,2.623-3.05.824-6.314.732-8.389,3.417-1.251,1.586-2.074,3.844-4.027,4.3a3.63,3.63,0,0,1-3.63-1.647,8.633,8.633,0,0,1-1.22-4.057,4.82,4.82,0,0,1,0-1.617,3.783,3.783,0,0,1,.854-1.525,16.961,16.961,0,0,1,7.382-3.935,46.824,46.824,0,0,0,6.864-3.05,35.721,35.721,0,0,1,5.613-2.2l11.134-4.057c2.623-.946,6.559-1.312,7.565-4.3a18.3,18.3,0,0,0,.58-4.484,19.1,19.1,0,0,1,2.684-8.48,2.5,2.5,0,0,1,.885-1.068,3.051,3.051,0,0,1,1.495-.366,9.151,9.151,0,0,1,4.21.488,7.352,7.352,0,0,1,3.752,4.24,15.252,15.252,0,0,1,.671,5.735,36.118,36.118,0,0,1-.7,6.192Z" transform="translate(-14.978 -28.461)" fill="#fdb9a9"/>
      <path id="Trazado_195" data-name="Trazado 195" d="M74.4,344c-.183.793-.793,1.434-1.007,2.227a5.247,5.247,0,0,0,0,1.952l.58,3.05A2.288,2.288,0,0,0,76.6,353.4a.854.854,0,0,1,.641.366.763.763,0,0,1,0,.519l-.854,3.874a18.821,18.821,0,0,1-1.678,4.667,1.434,1.434,0,0,1-.732,0c-1.952,0-2.715-4.942-3.417-6.8a13.392,13.392,0,0,1-.458-5.826,19.049,19.049,0,0,1,.336-3.051,8.785,8.785,0,0,1,.58-3.05,1.4,1.4,0,0,1,1.312-.763C72.937,343.362,74.615,343.117,74.4,344Z" transform="translate(-14.978 -28.461)" fill="#424242"/>
      <path id="Trazado_196" data-name="Trazado 196" d="M157.1,330.489a12.659,12.659,0,0,1,1.708,10.738c-2.593,5.674-7.718,10.951-11.47,15.893-2.318,3.05-4.576,6.1-6.742,9.151-1.769,2.593-4.3,4.637-4.149,8.023,0,2.013.915,4.271-.275,5.887a3.661,3.661,0,0,1-3.844,1.1,8.572,8.572,0,0,1-3.539-2.288,4.912,4.912,0,0,1-1.007-1.251,3.783,3.783,0,0,1-.336-1.739,16.625,16.625,0,0,1,3.05-7.779,45.027,45.027,0,0,0,3.05-6.864,33.343,33.343,0,0,1,2.867-5.338l5.826-10.311c1.4-2.41,4.179-5.247,3.05-8.175a17.936,17.936,0,0,0-2.471-3.783,19.523,19.523,0,0,1-3.478-8.175,3.63,3.63,0,0,1,0-1.4,3.05,3.05,0,0,1,.885-1.251,9.335,9.335,0,0,1,3.569-2.349,7.168,7.168,0,0,1,5.582.793,14.794,14.794,0,0,1,4.24,3.9,36.821,36.821,0,0,1,3.478,5.216Z" transform="translate(-14.978 -28.461)" fill="#fdb9a9"/>
      <path id="Trazado_197" data-name="Trazado 197" d="M128.12,373.714c.366.732.336,1.617.7,2.349a4.515,4.515,0,0,0,1.342,1.4l2.349,1.922a3.57,3.57,0,0,0,.915.58,3.3,3.3,0,0,0,2.5-.61.58.58,0,0,1,1.007.214l1.861,3.539a17.874,17.874,0,0,1,1.769,4.606,1.5,1.5,0,0,1-.488.58c-1.525,1.251-5.277-2.013-6.986-3.05a13.544,13.544,0,0,1-4.24-3.935c-.61-.854-1.19-1.739-1.769-2.593a9.152,9.152,0,0,1-1.464-2.593,1.5,1.5,0,0,1,.519-1.495C126.534,374.171,127.662,372.921,128.12,373.714Z" transform="translate(-14.978 -28.461)" fill="#424242"/>
      <path id="Trazado_198" data-name="Trazado 198" d="M187.36,231.836a1.952,1.952,0,0,1-.7,1.007c-2.318,2.227-4.667,4.393-6.955,6.62a18.3,18.3,0,0,1-2.379,1.922c-.763.458-1.586.763-2.349,1.22a5.735,5.735,0,0,0-.732.549,14.276,14.276,0,0,0-3.661,5.369c-.58,1.251-1.129,2.562-1.586,3.874a59.608,59.608,0,0,0-2.715,10.494c-3.508,20.377,1.068,41.151,3.447,61.589.305,2.257.519,4.515.7,6.772,0,.946.183,1.922.244,2.9a3.874,3.874,0,0,1-.4,2.532,3.782,3.782,0,0,1-1.861,1.19c-10.311,4.179-21.933,7.474-32.4,3.752-6.772-2.41-12.2-7.474-18.12-11.561s-13.3-7.26-20.225-5.247a21.079,21.079,0,0,1,5.216-13.544,36.911,36.911,0,0,1,3.691-4.179l2.745-2.715c9.151-8.938,16.991-16.656,21.9-29.193,1.983-5.094,2.379-11.073,5.735-15.527,3.05-3.813,5.4-4.21,6.1-9.334a114.515,114.515,0,0,1,4.362-18.882,45.758,45.758,0,0,1,8.511-15.252,22.39,22.39,0,0,1,5.857-5.247,11.256,11.256,0,0,1,7.6-1.556,7.565,7.565,0,0,1,5.826,4.789c2.349,6.925,8.45,9.945,11.775,16.5A1.739,1.739,0,0,1,187.36,231.836Z" transform="translate(-14.978 -28.461)" fill="#424242"/>
      <path id="Trazado_199" data-name="Trazado 199" d="M178.483,182.3a6.62,6.62,0,0,1-4.149,4.728c-4.728,1.861-11.256,1.1-9.945,7.84a23,23,0,0,1-1.159,14.856,14.672,14.672,0,0,0-2.684,5.826,14.122,14.122,0,0,0,.366,2.776,15.252,15.252,0,0,1-12.2,17.571,11.682,11.682,0,0,1-1.769.213,11.1,11.1,0,0,0-5.216.885,9.457,9.457,0,0,0-3.05,4.789,10.585,10.585,0,0,1-3.447,5c-3.264,2.2-7.626.854-11.287-.641a28.979,28.979,0,0,1-7.718-4.149,10.646,10.646,0,0,1-4.149-7.474,18.12,18.12,0,0,0-.091-5.735,27.149,27.149,0,0,0-2.166-3.05,10.951,10.951,0,0,1,.946-10.25,4.454,4.454,0,0,0,.641-1.739,5.582,5.582,0,0,0-.427-1.739,9.609,9.609,0,0,1,5.216-10.219,48.045,48.045,0,0,1,11.775-3.661,19.8,19.8,0,0,0,13.453-11.714c2.349-5,4.332-10.463,9.7-12.965a27.21,27.21,0,0,1,25.044,2.9,5.491,5.491,0,0,1,2.318,5.948Z" transform="translate(-14.978 -28.461)" fill="#473f47"/>
      <path id="Trazado_200" data-name="Trazado 200" d="M177.324,241.476c-.763.458-1.586.763-2.349,1.22a4.179,4.179,0,0,0-.732.549A17.3,17.3,0,0,0,169,252.4a62.076,62.076,0,0,0-2.745,10.524,118.754,118.754,0,0,0-.824,28.034,32.7,32.7,0,0,1-.305,10.219,32.3,32.3,0,0,1-7.413-16.839c-.427-3.386-.305-6.864-1.007-10.219-.549-2.41-1.525-4.728-1.922-7.169a1.525,1.525,0,0,0,0-.366c-.641-4.393,1.068-5.033,3.539-7.565a23.916,23.916,0,0,0,5.247-9.151q3.05-9.151,6.376-18.028C169.484,233.453,175.433,238.456,177.324,241.476Z" transform="translate(-14.978 -28.461)" fill="url(#linear-gradient-3)"/>
      <path id="Trazado_201" data-name="Trazado 201" d="M170.461,331.343a51.157,51.157,0,0,1-32.244-.824,31.6,31.6,0,0,1-10.646-6.1c-1.19-1.1-2.257-2.318-3.478-3.356a27.454,27.454,0,0,0-6.1-3.783c-4.728-2.257-9.67-3.691-14.459-5.643l-.519-.214a40.175,40.175,0,0,1,3.691-4.179l2.776-2.715h.61A33.952,33.952,0,0,1,118.969,307a85.416,85.416,0,0,1,12.782,8.968,83.555,83.555,0,0,0,12.629,6.986,37.7,37.7,0,0,0,8.755,3.2,39.292,39.292,0,0,0,9.151.183,14.978,14.978,0,0,0,7.474-1.8C170.034,326.828,170.247,329.055,170.461,331.343Z" transform="translate(-14.978 -28.461)" fill="#fff" opacity="0.38"/>
      <path id="Trazado_202" data-name="Trazado 202" d="M209.995,170.156l18.15-49.845h75.56L283.969,171.5Z" fill="#424242" opacity="0.18"/>
      <path id="Trazado_203" data-name="Trazado 203" d="M311.088,26.112l31.267,14.459L337.078,59Z" fill="#424242"/>
      <path id="Trazado_204" data-name="Trazado 204" d="M311.088,26.112H359.8l-14.825,9.06Z" fill="#424242"/>
      <path id="Trazado_205" data-name="Trazado 205" d="M350.622,48.716l-8.267-8.145L311.088,26.112l33.891,9.06Z" fill="#424242"/>
      <path id="Trazado_206" data-name="Trazado 206" d="M350.622,48.716l-8.267-8.145L311.088,26.112l33.891,9.06Z" fill="url(#linear-gradient-4)"/>
      <path id="Trazado_207" data-name="Trazado 207" d="M350.622,48.716l-8.267-8.145L311.088,26.112Z" fill="#424242"/>
    </g>
  </g>
</svg>
